<?xml version="1.0" encoding="UTF-8" standalone="no"?>
<!DOCTYPE svg PUBLIC "-//W3C//DTD SVG 1.1//EN"
 "http://www.w3.org/Graphics/SVG/1.1/DTD/svg11.dtd">
<!-- Generated by graphviz version 2.47.3 (20210619.1520)
 -->
<!-- Title: dependencies Pages: 1 -->
<svg width="492pt" height="174pt"
 viewBox="0.00 0.00 492.00 173.80" xmlns="http://www.w3.org/2000/svg" xmlns:xlink="http://www.w3.org/1999/xlink">
<g id="graph0" class="graph" transform="scale(1 1) rotate(0) translate(4 169.8)">
<title>dependencies</title>
<polygon fill="white" stroke="transparent" points="-4,4 -4,-169.8 488,-169.8 488,4 -4,4"/>
<text text-anchor="middle" x="242" y="-8.2" font-family="sans-serif" font-size="14.00">dependencies</text>
<g id="clust1" class="cluster">
<title>cluster_RequestViewerPageModule</title>
<polygon fill="none" stroke="black" stroke-dasharray="1,5" points="8,-32.8 8,-157.8 476,-157.8 476,-32.8 8,-32.8"/>
</g>
<g id="clust2" class="cluster">
<title>cluster_RequestViewerPageModule_declarations</title>
<polygon fill="none" stroke="black" points="258,-40.8 258,-92.8 468,-92.8 468,-40.8 258,-40.8"/>
</g>
<g id="clust4" class="cluster">
<title>cluster_RequestViewerPageModule_imports</title>
<polygon fill="none" stroke="black" points="16,-40.8 16,-92.8 250,-92.8 250,-40.8 16,-40.8"/>
</g>
<!-- RequestViewerPageComponent -->
<g id="node1" class="node">
<title>RequestViewerPageComponent</title>
<polygon fill="#ffffb3" stroke="black" points="460.34,-84.8 265.66,-84.8 265.66,-48.8 460.34,-48.8 460.34,-84.8"/>
<text text-anchor="middle" x="363" y="-62.6" font-family="Times,serif" font-size="14.00">RequestViewerPageComponent</text>
</g>
<!-- RequestViewerPageModule -->
<g id="node2" class="node">
<title>RequestViewerPageModule</title>
<polygon fill="#8dd3c7" stroke="black" points="334.56,-149.8 331.56,-153.8 310.56,-153.8 307.56,-149.8 161.44,-149.8 161.44,-113.8 334.56,-113.8 334.56,-149.8"/>
<text text-anchor="middle" x="248" y="-127.6" font-family="Times,serif" font-size="14.00">RequestViewerPageModule</text>
</g>
<!-- RequestViewerPageComponent&#45;&gt;RequestViewerPageModule -->
<g id="edge1" class="edge">
<title>RequestViewerPageComponent&#45;&gt;RequestViewerPageModule</title>
<path fill="none" stroke="black" d="M300.05,-84.91C300.05,-84.91 300.05,-103.79 300.05,-103.79"/>
<polygon fill="black" stroke="black" points="296.55,-103.79 300.05,-113.79 303.55,-103.79 296.55,-103.79"/>
</g>
<!-- RequestViewerPageRoutingModule -->
<g id="node3" class="node">
<title>RequestViewerPageRoutingModule</title>
<polygon fill="#8dd3c7" stroke="black" points="242.17,-84.8 239.17,-88.8 218.17,-88.8 215.17,-84.8 23.83,-84.8 23.83,-48.8 242.17,-48.8 242.17,-84.8"/>
<text text-anchor="middle" x="133" y="-62.6" font-family="Times,serif" font-size="14.00">RequestViewerPageRoutingModule</text>
</g>
<!-- RequestViewerPageRoutingModule&#45;&gt;RequestViewerPageModule -->
<g id="edge2" class="edge">
<title>RequestViewerPageRoutingModule&#45;&gt;RequestViewerPageModule</title>
<path fill="none" stroke="black" d="M201.78,-84.91C201.78,-84.91 201.78,-103.79 201.78,-103.79"/>
<polygon fill="black" stroke="black" points="198.28,-103.79 201.78,-113.79 205.28,-103.79 198.28,-103.79"/>
</g>
</g>
</svg>
