<?xml version="1.0" encoding="UTF-8" standalone="no"?>
<!DOCTYPE svg PUBLIC "-//W3C//DTD SVG 1.1//EN" "http://www.w3.org/Graphics/SVG/1.1/DTD/svg11.dtd">
<svg width="100%" height="100%" viewBox="0 0 1532 255" version="1.1" xmlns="http://www.w3.org/2000/svg" xmlns:xlink="http://www.w3.org/1999/xlink" xml:space="preserve" xmlns:serif="http://www.serif.com/" style="fill-rule:evenodd;clip-rule:evenodd;stroke-miterlimit:10;">
    <g transform="matrix(1,0,0,1,-194.251,-412.823)">
        <g transform="matrix(1.07505,0,0,1.07505,-72.0474,-40.5267)">
            <g id="logo-unibe-02-cropped.svg" serif:id="logo unibe-02-cropped.svg" transform="matrix(4.12838,0,0,4.12838,1309.96,540)">
                <g transform="matrix(1,0,0,1,-87.765,-28.655)">
                    <clipPath id="_clip1">
                        <rect x="0" y="0" width="175.53" height="57.31"/>
                    </clipPath>
                    <g clip-path="url(#_clip1)">
                        <g transform="matrix(1,0,0,1,-17.31,-21.85)">
                            <path d="M21.44,66.05L189.76,66.05" style="fill:none;fill-rule:nonzero;stroke:rgb(251,190,0);stroke-width:0.82px;"/>
                        </g>
                        <g transform="matrix(1,0,0,1,-17.31,-21.85)">
                            <path d="M192.84,66C192.829,66.996 192.006,67.81 191.01,67.81C190.006,67.81 189.18,66.984 189.18,65.98C189.18,64.98 190,64.156 191,64.15C191.003,64.15 191.007,64.15 191.01,64.15C192.014,64.15 192.84,64.976 192.84,65.98C192.84,65.987 192.84,65.993 192.84,66Z" style="fill:rgb(251,190,0);fill-rule:nonzero;"/>
                        </g>
                        <g transform="matrix(1,0,0,1,-17.31,-21.85)">
                            <path d="M23.27,66C23.27,67.004 22.444,67.83 21.44,67.83C20.436,67.83 19.61,67.004 19.61,66C19.61,64.996 20.436,64.17 21.44,64.17C22.444,64.17 23.27,64.996 23.27,66Z" style="fill:rgb(251,190,0);fill-rule:nonzero;"/>
                        </g>
                        <g transform="matrix(1,0,0,1,-17.31,-21.85)">
                            <path d="M34.73,21.86L34.73,23.18C32.73,23.24 31.37,23.56 30.73,24.11C30.09,24.66 29.73,25.93 29.73,27.92L29.73,45.31C29.64,47.389 29.959,49.465 30.67,51.42C31.8,54.1 33.97,55.42 37.18,55.42C41.18,55.42 43.877,53.943 45.27,50.99C46.141,48.823 46.537,46.493 46.43,44.16L46.43,28.3C46.43,26.44 46.097,25.16 45.43,24.46C44.74,23.76 43.43,23.33 41.43,23.18L41.43,21.86L52.83,21.86L52.83,23.18C51.659,23.311 50.536,23.716 49.55,24.36C49.02,24.82 48.75,25.89 48.75,27.56L48.75,44.16C48.75,48.573 47.687,51.977 45.56,54.37C43.433,56.763 40.1,57.963 35.56,57.97C29.56,57.97 25.48,56.187 23.32,52.62C22.068,50.387 21.461,47.848 21.57,45.29L21.57,27.92C21.57,25.92 21.31,24.74 20.79,24.24C20.27,23.74 19.12,23.38 17.31,23.18L17.31,21.86L34.73,21.86Z" style="fill:rgb(0,73,144);fill-rule:nonzero;"/>
                        </g>
                        <g transform="matrix(1,0,0,1,-17.31,-21.85)">
                            <path d="M54.67,55.61C56.59,55.61 57.84,55.19 58.39,54.51C59.004,53.635 59.301,52.576 59.23,51.51L59.23,26.9C57.643,25.127 56.663,24.083 56.29,23.77C55.851,23.431 55.323,23.226 54.77,23.18L54.77,21.86L65.77,21.86L83.61,43.54L83.86,43.54L83.86,28.29C83.968,26.959 83.615,25.631 82.86,24.53C82.22,23.78 80.95,23.33 79.03,23.18L79.03,21.86L90.22,21.86L90.22,23.18C89.078,23.286 87.975,23.656 87,24.26C86.45,24.71 86.17,25.73 86.17,27.26L86.17,57.89L84.7,57.89L61.87,30.14L61.51,30.14L61.51,50.49C61.416,51.659 61.644,52.832 62.17,53.88C62.86,54.95 64.28,55.53 66.43,55.61L66.43,56.93L54.67,56.93L54.67,55.61Z" style="fill:rgb(0,73,144);fill-rule:nonzero;"/>
                        </g>
                        <g transform="matrix(1,0,0,1,-17.31,-21.85)">
                            <path d="M92.15,55.61C93.228,55.651 94.304,55.47 95.31,55.08C96.396,54.456 97.017,53.246 96.89,52L96.89,26.83C97.041,25.6 96.451,24.39 95.39,23.75C94.357,23.352 93.257,23.158 92.15,23.18L92.15,21.86L110.29,21.86L110.29,23.18C109.152,23.154 108.019,23.34 106.95,23.73C105.87,24.364 105.27,25.588 105.43,26.83L105.43,52C105.43,53.46 105.83,54.43 106.64,54.92C107.772,55.479 109.031,55.73 110.29,55.65L110.29,56.97L92.15,56.97L92.15,55.61Z" style="fill:rgb(0,73,144);fill-rule:nonzero;"/>
                        </g>
                        <g transform="matrix(1,0,0,1,-17.31,-21.85)">
                            <path d="M112.34,55.61C113.368,55.636 114.391,55.446 115.34,55.05C116.416,54.432 117.032,53.235 116.91,52L116.91,26.83C117.036,25.638 116.473,24.472 115.46,23.83C114.472,23.42 113.41,23.216 112.34,23.23L112.34,21.86L128.34,21.86C130.951,21.788 133.556,22.146 136.05,22.92C139.903,24.253 141.83,26.687 141.83,30.22C141.904,32.199 141.03,34.098 139.48,35.33C138.016,36.543 136.268,37.365 134.4,37.72L134.4,38.2C136.166,38.52 137.86,39.157 139.4,40.08C141.964,41.54 143.552,44.273 143.552,47.223C143.552,50.099 142.042,52.774 139.58,54.26C136.913,56.04 133.38,56.93 128.98,56.93L112.28,56.93L112.34,55.61ZM131.65,36C132.75,34.96 133.3,33.103 133.3,30.43C133.358,28.7 132.987,26.982 132.22,25.43C131.51,24.08 130.12,23.43 128.08,23.43C127.291,23.352 126.498,23.542 125.83,23.97C125.333,24.509 125.098,25.242 125.19,25.97L125.19,37.6C128.4,37.6 130.56,37.07 131.65,36.02M125.6,54.14C126.124,54.934 127.054,55.368 128,55.26C130.447,55.26 132.167,54.593 133.16,53.26C134.244,51.561 134.762,49.562 134.64,47.55C134.64,43.87 133.55,41.42 131.37,40.2C130.037,39.46 127.967,39.127 125.16,39.2L125.16,52.2C125.127,52.89 125.268,53.578 125.57,54.2" style="fill:rgb(0,73,144);fill-rule:nonzero;"/>
                        </g>
                        <g transform="matrix(1,0,0,1,-17.31,-21.85)">
                            <path d="M151.53,50.18C152.358,49.346 153.485,48.877 154.66,48.877C157.079,48.877 159.07,50.867 159.07,53.287C159.07,55.706 157.079,57.697 154.66,57.697C152.241,57.697 150.25,55.706 150.25,53.287C150.25,53.284 150.25,53.282 150.25,53.28C150.23,52.115 150.694,50.992 151.53,50.18" style="fill:rgb(0,73,144);fill-rule:nonzero;"/>
                        </g>
                        <g transform="matrix(1,0,0,1,-17.31,-21.85)">
                            <path d="M159.93,56.93L159.93,55.61C161.019,55.647 162.103,55.439 163.1,55C164.109,54.355 164.671,53.192 164.55,52L164.55,26.83C164.678,25.625 164.091,24.45 163.05,23.83C162.062,23.42 161,23.216 159.93,23.23L159.93,21.86L189.84,21.86L189.84,32.32L188.57,32.32C187.903,28.987 186.783,26.7 185.21,25.46C183.63,24.22 180.75,23.61 176.58,23.61C175.554,23.505 174.519,23.674 173.58,24.1C173.07,24.632 172.833,25.371 172.94,26.1L172.94,38.1C175.94,38.1 177.94,37.59 178.94,36.49C179.94,35.39 180.79,33.36 181.35,30.42L182.67,30.42L182.67,47.93L181.35,47.93C180.977,44.977 180.22,42.897 179.08,41.69C177.94,40.483 175.893,39.88 172.94,39.88L172.94,52.44C172.833,53.284 173.152,54.128 173.79,54.69C174.878,55.189 176.078,55.392 177.27,55.28C180.098,55.399 182.905,54.734 185.38,53.36C187.473,52.067 189.33,49.66 190.95,46.14L192.4,46.14L190.3,56.93L159.93,56.93Z" style="fill:rgb(0,73,144);fill-rule:nonzero;"/>
                        </g>
                        <g transform="matrix(1,0,0,1,-17.31,-21.85)">
                            <path d="M19.8,73.56L20.8,73.56L20.8,77.07C20.785,77.286 20.812,77.504 20.88,77.71C20.935,77.834 21.025,77.938 21.14,78.01C21.274,78.085 21.426,78.123 21.58,78.12C21.745,78.124 21.907,78.083 22.05,78C22.171,77.924 22.265,77.812 22.32,77.68C22.385,77.439 22.412,77.189 22.4,76.94L22.4,73.56L23.4,73.56L23.4,76.79C23.415,77.172 23.385,77.555 23.31,77.93C23.238,78.156 23.119,78.364 22.96,78.54C22.795,78.729 22.59,78.88 22.36,78.98C22.108,79.076 21.84,79.124 21.57,79.12C21.218,79.123 20.872,79.029 20.57,78.85C20.299,78.691 20.083,78.454 19.95,78.17C19.794,77.728 19.73,77.258 19.76,76.79L19.8,73.56Z" style="fill:rgb(0,73,144);fill-rule:nonzero;"/>
                        </g>
                        <g transform="matrix(1,0,0,1,-17.31,-21.85)">
                            <path d="M24.67,73.56L25.67,73.56L28,77.13L28,73.56L29,73.56L29,79L28,79L25.69,75.45L25.69,79L24.69,79L24.67,73.56Z" style="fill:rgb(0,73,144);fill-rule:nonzero;"/>
                        </g>
                        <g transform="matrix(1,0,0,1,-17.31,-21.85)">
                            <rect x="30.18" y="73.56" width="1" height="5.44" style="fill:rgb(0,73,144);fill-rule:nonzero;"/>
                        </g>
                        <g transform="matrix(1,0,0,1,-17.31,-21.85)">
                            <path d="M32,73.56L33,73.56L34.36,77.41L35.75,73.56L36.81,73.56L34.81,78.98L33.81,78.98L32,73.56Z" style="fill:rgb(0,73,144);fill-rule:nonzero;"/>
                        </g>
                        <g transform="matrix(1,0,0,1,-17.31,-21.85)">
                            <path d="M37.66,73.56L40.66,73.56L40.66,74.56L38.68,74.56L38.68,75.56L40.62,75.56L40.62,76.56L38.68,76.56L38.68,78L40.62,78L40.62,79L37.62,79L37.66,73.56Z" style="fill:rgb(0,73,144);fill-rule:nonzero;"/>
                        </g>
                        <g transform="matrix(1,0,0,1,-17.31,-21.85)">
                            <path d="M41.65,73.56L42.74,73.56C43.173,73.534 43.607,73.589 44.02,73.72C44.277,73.827 44.494,74.013 44.64,74.25C44.795,74.517 44.875,74.821 44.87,75.13C44.88,75.45 44.789,75.765 44.61,76.03C44.418,76.288 44.148,76.478 43.84,76.57L45.13,79L44,79L42.78,76.71L42.68,76.71L42.68,79L41.68,79L41.65,73.56ZM42.65,75.68L43,75.68C43.231,75.704 43.464,75.658 43.67,75.55C43.804,75.45 43.876,75.286 43.86,75.12C43.862,75.01 43.831,74.902 43.77,74.81C43.705,74.726 43.619,74.66 43.52,74.62C43.336,74.58 43.148,74.563 42.96,74.57L42.67,74.57L42.65,75.68Z" style="fill:rgb(0,73,144);fill-rule:nonzero;"/>
                        </g>
                        <g transform="matrix(1,0,0,1,-17.31,-21.85)">
                            <path d="M48.81,74.3L48,75C47.833,74.693 47.527,74.484 47.18,74.44C47.061,74.438 46.944,74.477 46.85,74.55C46.768,74.606 46.719,74.7 46.72,74.8C46.721,74.891 46.752,74.979 46.81,75.05C47.048,75.299 47.302,75.533 47.57,75.75L48.29,76.37C48.471,76.547 48.619,76.753 48.73,76.98C48.82,77.178 48.864,77.393 48.86,77.61C48.874,78.026 48.706,78.428 48.4,78.71C48.073,79.008 47.642,79.166 47.2,79.15C46.847,79.153 46.5,79.056 46.2,78.87C45.879,78.64 45.624,78.329 45.46,77.97L46.33,77.45C46.59,77.93 46.89,78.17 47.23,78.17C47.395,78.177 47.556,78.119 47.68,78.01C47.79,77.927 47.857,77.798 47.86,77.66C47.856,77.525 47.806,77.394 47.72,77.29C47.541,77.079 47.34,76.888 47.12,76.72C46.698,76.392 46.321,76.008 46,75.58C45.834,75.353 45.743,75.081 45.74,74.8C45.726,74.419 45.884,74.052 46.17,73.8C46.455,73.528 46.836,73.38 47.23,73.39C47.498,73.392 47.762,73.458 48,73.58C48.311,73.769 48.586,74.013 48.81,74.3Z" style="fill:rgb(0,73,144);fill-rule:nonzero;"/>
                        </g>
                        <g transform="matrix(1,0,0,1,-17.31,-21.85)">
                            <rect x="49.81" y="73.56" width="1" height="5.44" style="fill:rgb(0,73,144);fill-rule:nonzero;"/>
                        </g>
                        <g transform="matrix(1,0,0,1,-17.31,-21.85)">
                            <path d="M52,73.56L53.23,73.56C53.827,73.528 54.425,73.627 54.98,73.85C55.41,74.071 55.759,74.42 55.98,74.85C56.41,75.684 56.468,76.661 56.14,77.54C56.015,77.868 55.82,78.164 55.57,78.41C55.343,78.628 55.069,78.792 54.77,78.89C54.285,78.999 53.787,79.043 53.29,79.02L52,79.02L52,73.56ZM53,74.56L53,78L53.48,78C53.822,78.018 54.163,77.96 54.48,77.83C54.71,77.712 54.896,77.522 55.01,77.29C55.158,76.978 55.227,76.635 55.21,76.29C55.239,75.821 55.085,75.358 54.78,75C54.383,74.688 53.883,74.538 53.38,74.58L53,74.56Z" style="fill:rgb(0,73,144);fill-rule:nonzero;"/>
                        </g>
                        <g transform="matrix(1,0,0,1,-17.31,-21.85)">
                            <path d="M58.94,73.56L60,73.56L62.07,79L61,79L60.58,77.89L58.36,77.89L57.92,79L56.85,79L58.94,73.56ZM59.47,75L58.74,76.86L60.19,76.86L59.47,75Z" style="fill:rgb(0,73,144);fill-rule:nonzero;"/>
                        </g>
                        <g transform="matrix(1,0,0,1,-17.31,-21.85)">
                            <path d="M62.87,73.56L64.1,73.56C64.698,73.527 65.295,73.626 65.85,73.85C66.28,74.071 66.629,74.42 66.85,74.85C67.107,75.322 67.234,75.853 67.22,76.39C67.212,76.77 67.137,77.146 67,77.5C66.875,77.83 66.677,78.128 66.42,78.37C66.197,78.588 65.926,78.752 65.63,78.85C65.145,78.958 64.647,79.002 64.15,78.98L62.87,78.98L62.87,73.56ZM63.87,74.56L63.87,78L64.35,78C64.692,78.015 65.033,77.957 65.35,77.83C65.575,77.708 65.757,77.519 65.87,77.29C66.018,76.978 66.087,76.635 66.07,76.29C66.101,75.822 65.951,75.36 65.65,75C65.253,74.688 64.753,74.538 64.25,74.58L63.87,74.56Z" style="fill:rgb(0,73,144);fill-rule:nonzero;"/>
                        </g>
                        <g transform="matrix(1,0,0,1,-17.31,-21.85)">
                            <rect x="70.2" y="73.56" width="1" height="5.44" style="fill:rgb(0,73,144);fill-rule:nonzero;"/>
                        </g>
                        <g transform="matrix(1,0,0,1,-17.31,-21.85)">
                            <path d="M72.38,79L72.38,73.56L73.24,73.56C73.603,73.545 73.966,73.579 74.32,73.66C74.626,73.729 74.901,73.898 75.1,74.14C75.289,74.371 75.388,74.662 75.38,74.96C75.384,75.155 75.34,75.347 75.25,75.52C75.148,75.71 75.005,75.874 74.83,76C75.12,76.121 75.37,76.322 75.55,76.58C75.706,76.824 75.787,77.11 75.78,77.4C75.784,77.694 75.7,77.983 75.54,78.23C75.394,78.474 75.183,78.671 74.93,78.8C74.613,78.93 74.272,78.992 73.93,78.98L72.38,79ZM73.38,74.56L73.38,75.71L73.6,75.71C73.799,75.723 73.997,75.666 74.16,75.55C74.281,75.441 74.347,75.283 74.34,75.12C74.35,74.964 74.287,74.813 74.17,74.71C74.017,74.599 73.829,74.546 73.64,74.56L73.38,74.56ZM73.38,76.63L73.38,78L73.63,78C73.929,78.024 74.229,77.969 74.5,77.84C74.65,77.728 74.733,77.547 74.72,77.36C74.73,77.145 74.632,76.939 74.46,76.81C74.198,76.654 73.894,76.584 73.59,76.61L73.38,76.63Z" style="fill:rgb(0,73,144);fill-rule:nonzero;"/>
                        </g>
                        <g transform="matrix(1,0,0,1,-17.31,-21.85)">
                            <path d="M76.77,73.56L79.77,73.56L79.77,74.56L77.79,74.56L77.79,75.56L79.73,75.56L79.73,76.56L77.79,76.56L77.79,78L79.73,78L79.73,79L76.73,79L76.77,73.56Z" style="fill:rgb(0,73,144);fill-rule:nonzero;"/>
                        </g>
                        <g transform="matrix(1,0,0,1,-17.31,-21.85)">
                            <path d="M80.76,73.56L81.85,73.56C82.283,73.534 82.717,73.589 83.13,73.72C83.386,73.825 83.6,74.011 83.74,74.25C83.903,74.514 83.987,74.82 83.98,75.13C83.99,75.45 83.899,75.765 83.72,76.03C83.526,76.286 83.257,76.475 82.95,76.57L84.23,79L83.1,79L81.89,76.71L81.79,76.71L81.79,79L80.79,79L80.76,73.56ZM81.76,75.68L82.08,75.68C82.314,75.703 82.551,75.658 82.76,75.55C82.894,75.45 82.966,75.286 82.95,75.12C82.952,75.01 82.921,74.902 82.86,74.81C82.793,74.728 82.707,74.663 82.61,74.62C82.423,74.579 82.231,74.563 82.04,74.57L81.76,74.57L81.76,75.68Z" style="fill:rgb(0,73,144);fill-rule:nonzero;"/>
                        </g>
                        <g transform="matrix(1,0,0,1,-17.31,-21.85)">
                            <path d="M87.63,73.42C88.385,73.406 89.112,73.711 89.63,74.26C90.695,75.371 90.695,77.149 89.63,78.26C88.53,79.351 86.73,79.351 85.63,78.26C85.107,77.727 84.815,77.007 84.82,76.26C84.812,75.757 84.943,75.262 85.2,74.83C85.438,74.413 85.783,74.068 86.2,73.83C86.63,73.564 87.125,73.422 87.63,73.42ZM87.63,74.42C87.151,74.411 86.69,74.603 86.36,74.95C86.017,75.306 85.833,75.786 85.85,76.28C85.826,76.828 86.064,77.355 86.49,77.7C86.817,77.968 87.227,78.113 87.65,78.11C88.122,78.115 88.575,77.922 88.9,77.58C89.585,76.846 89.585,75.694 88.9,74.96C88.57,74.608 88.103,74.414 87.62,74.43L87.63,74.42Z" style="fill:rgb(0,73,144);fill-rule:nonzero;"/>
                        </g>
                        <g transform="matrix(1,0,0,1,-17.31,-21.85)">
                            <path d="M93.06,73.56L94.06,73.56L96.2,79L95.12,79L94.7,77.89L92.49,77.89L92.05,79L91,79L93.06,73.56ZM93.59,75L92.87,76.86L94.32,76.86L93.59,75Z" style="fill:rgb(0,73,144);fill-rule:nonzero;"/>
                        </g>
                        <g transform="matrix(1,0,0,1,-17.31,-21.85)">
                            <path d="M97.52,73.56L98.52,73.56L99.77,77.34L101.04,73.56L102.04,73.56L103,79L102,79L101.42,75.58L100.24,79L99.33,79L98.18,75.58L97.59,79L96.59,79L97.52,73.56Z" style="fill:rgb(0,73,144);fill-rule:nonzero;"/>
                        </g>
                        <g transform="matrix(1,0,0,1,-17.31,-21.85)">
                            <path d="M103.79,73.56L106.79,73.56L106.79,74.56L104.86,74.56L104.86,75.56L106.79,75.56L106.79,76.56L104.86,76.56L104.86,78L106.79,78L106.79,79L103.79,79L103.79,73.56Z" style="fill:rgb(0,73,144);fill-rule:nonzero;"/>
                        </g>
                        <g transform="matrix(1,0,0,1,-17.31,-21.85)">
                            <path d="M107.79,73.56L108.88,73.56C109.313,73.535 109.747,73.589 110.16,73.72C110.414,73.827 110.628,74.013 110.77,74.25C110.93,74.515 111.01,74.821 111,75.13C111.013,75.449 110.926,75.764 110.75,76.03C110.556,76.286 110.287,76.475 109.98,76.57L111.26,79L110.13,79L108.91,76.71L108.82,76.71L108.82,79L107.82,79L107.79,73.56ZM108.79,75.68L109.11,75.68C109.344,75.703 109.581,75.658 109.79,75.55C109.917,75.445 109.985,75.284 109.97,75.12C109.972,75.01 109.941,74.902 109.88,74.81C109.819,74.726 109.736,74.66 109.64,74.62C109.453,74.58 109.261,74.563 109.07,74.57L108.79,74.57L108.79,75.68Z" style="fill:rgb(0,73,144);fill-rule:nonzero;"/>
                        </g>
                        <g transform="matrix(1,0,0,1,-17.31,-21.85)">
                            <rect x="112" y="73.56" width="1" height="5.44" style="fill:rgb(0,73,144);fill-rule:nonzero;"/>
                        </g>
                        <g transform="matrix(1,0,0,1,-17.31,-21.85)">
                            <path d="M119.19,74.51L118.47,75.2C118.054,74.714 117.449,74.43 116.81,74.42C116.81,74.42 116.81,74.42 116.81,74.42C115.817,74.42 115,75.237 115,76.23C115,76.24 115,76.25 115,76.26C114.987,76.609 115.07,76.955 115.24,77.26C115.393,77.538 115.622,77.767 115.9,77.92C116.207,78.086 116.551,78.169 116.9,78.16C117.182,78.162 117.462,78.104 117.72,77.99C118.026,77.835 118.304,77.629 118.54,77.38L119.24,78.11C118.914,78.449 118.527,78.723 118.1,78.92C117.713,79.078 117.298,79.157 116.88,79.15C115.3,79.134 114.01,77.83 114.01,76.25C114.01,75.761 114.134,75.279 114.37,74.85C114.626,74.426 114.992,74.081 115.43,73.85C115.876,73.591 116.384,73.456 116.9,73.46C117.806,73.471 118.665,73.867 119.26,74.55L119.19,74.51Z" style="fill:rgb(0,73,144);fill-rule:nonzero;"/>
                        </g>
                        <g transform="matrix(1,0,0,1,-17.31,-21.85)">
                            <path d="M121.75,73.56L122.75,73.56L124.88,79L123.81,79L123.39,77.89L121.17,77.89L120.73,79L119.66,79L121.75,73.56ZM122.28,75L121.55,76.86L123,76.86L122.28,75Z" style="fill:rgb(0,73,144);fill-rule:nonzero;"/>
                        </g>
                        <g transform="matrix(1,0,0,1,-17.31,-21.85)">
                            <path d="M125.68,73.56L126.68,73.56L129,77.13L129,73.56L130,73.56L130,79L129,79L126.69,75.45L126.69,79L125.69,79L125.68,73.56Z" style="fill:rgb(0,73,144);fill-rule:nonzero;"/>
                        </g>
                        <g transform="matrix(1,0,0,1,-17.31,-21.85)">
                            <path d="M132.92,73.56L134,73.56L136.05,79L135,79L134.58,77.89L132.36,77.89L131.9,79L130.83,79L132.92,73.56ZM133.45,75L132.72,76.86L134.17,76.86L133.45,75Z" style="fill:rgb(0,73,144);fill-rule:nonzero;"/>
                        </g>
                        <g transform="matrix(1,0,0,1,-17.31,-21.85)">
                            <path d="M139,73.56L140.22,73.56C140.821,73.528 141.421,73.627 141.98,73.85C142.388,74.079 142.716,74.428 142.92,74.85C143.358,75.681 143.42,76.661 143.09,77.54C142.965,77.87 142.767,78.168 142.51,78.41C142.287,78.628 142.016,78.792 141.72,78.89C141.235,78.998 140.737,79.042 140.24,79.02L139,79.02L139,73.56ZM140,74.56L140,78L140.48,78C140.822,78.016 141.163,77.958 141.48,77.83C141.705,77.708 141.887,77.519 142,77.29C142.148,76.978 142.217,76.635 142.2,76.29C142.229,75.797 142.055,75.313 141.72,74.95C141.323,74.638 140.823,74.488 140.32,74.53L140,74.56Z" style="fill:rgb(0,73,144);fill-rule:nonzero;"/>
                        </g>
                        <g transform="matrix(1,0,0,1,-17.31,-21.85)">
                            <path d="M144.25,73.56L147.25,73.56L147.25,74.56L145.32,74.56L145.32,75.56L147.25,75.56L147.25,76.56L145.32,76.56L145.32,78L147.25,78L147.25,79L144.25,79L144.25,73.56Z" style="fill:rgb(0,73,144);fill-rule:nonzero;"/>
                        </g>
                        <g transform="matrix(1,0,0,1,-17.31,-21.85)">
                            <path d="M148.18,73.56L149.18,73.56L149.18,78L150.68,78L150.68,79L148.15,79L148.18,73.56Z" style="fill:rgb(0,73,144);fill-rule:nonzero;"/>
                        </g>
                        <g transform="matrix(1,0,0,1,-17.31,-21.85)">
                            <path d="M153.61,73.56L156.61,73.56L156.61,74.56L154.68,74.56L154.68,75.56L156.61,75.56L156.61,76.56L154.68,76.56L154.68,78L156.61,78L156.61,79L153.61,79L153.61,73.56Z" style="fill:rgb(0,73,144);fill-rule:nonzero;"/>
                        </g>
                        <g transform="matrix(1,0,0,1,-17.31,-21.85)">
                            <path d="M162.52,74.51L161.8,75.2C161.384,74.714 160.779,74.43 160.14,74.42C160.13,74.42 160.12,74.42 160.11,74.42C159.117,74.42 158.3,75.237 158.3,76.23C158.3,76.24 158.3,76.25 158.3,76.26C158.287,76.609 158.37,76.955 158.54,77.26C158.69,77.54 158.92,77.77 159.2,77.92C159.507,78.086 159.851,78.169 160.2,78.16C160.475,78.162 160.747,78.108 161,78C161.306,77.845 161.584,77.639 161.82,77.39L162.52,78.12C162.194,78.459 161.807,78.733 161.38,78.93C160.993,79.088 160.578,79.167 160.16,79.16C158.58,79.144 157.29,77.84 157.29,76.26C157.29,75.771 157.414,75.289 157.65,74.86C157.905,74.439 158.267,74.094 158.7,73.86C159.151,73.604 159.661,73.47 160.18,73.47C160.626,73.472 161.066,73.571 161.47,73.76C161.869,73.934 162.226,74.189 162.52,74.51Z" style="fill:rgb(0,73,144);fill-rule:nonzero;"/>
                        </g>
                        <g transform="matrix(1,0,0,1,-17.31,-21.85)">
                            <path d="M163.39,73.56L164.39,73.56L164.39,77.07C164.38,77.286 164.407,77.503 164.47,77.71C164.525,77.834 164.615,77.938 164.73,78.01C164.865,78.084 165.016,78.121 165.17,78.12C165.335,78.126 165.498,78.084 165.64,78C165.766,77.927 165.865,77.815 165.92,77.68C165.981,77.438 166.004,77.189 165.99,76.94L165.99,73.56L166.99,73.56L166.99,76.79C167.005,77.172 166.975,77.555 166.9,77.93C166.828,78.158 166.705,78.367 166.54,78.54C166.395,78.73 166.211,78.887 166,79C165.748,79.096 165.48,79.144 165.21,79.14C164.858,79.144 164.512,79.05 164.21,78.87C163.939,78.711 163.723,78.474 163.59,78.19C163.434,77.748 163.37,77.278 163.4,76.81L163.39,73.56Z" style="fill:rgb(0,73,144);fill-rule:nonzero;"/>
                        </g>
                        <g transform="matrix(1,0,0,1,-17.31,-21.85)">
                            <path d="M169.91,73.56L171,73.56L173,79L172,79L171.58,77.89L169.36,77.89L168.89,79L167.82,79L169.91,73.56ZM170.44,75L169.71,76.86L171.16,76.86L170.44,75Z" style="fill:rgb(0,73,144);fill-rule:nonzero;"/>
                        </g>
                        <g transform="matrix(1,0,0,1,-17.31,-21.85)">
                            <path d="M173.85,73.56L175.07,73.56C175.671,73.528 176.271,73.627 176.83,73.85C177.236,74.082 177.563,74.431 177.77,74.85C178.195,75.685 178.256,76.659 177.94,77.54C177.815,77.87 177.617,78.168 177.36,78.41C177.137,78.628 176.866,78.792 176.57,78.89C176.085,78.998 175.587,79.042 175.09,79.02L173.85,79.02L173.85,73.56ZM174.85,74.56L174.85,78L175.33,78C175.672,78.015 176.013,77.957 176.33,77.83C176.555,77.708 176.737,77.519 176.85,77.29C176.998,76.978 177.067,76.635 177.05,76.29C177.079,75.797 176.905,75.313 176.57,74.95C176.173,74.638 175.673,74.488 175.17,74.53L174.85,74.56Z" style="fill:rgb(0,73,144);fill-rule:nonzero;"/>
                        </g>
                        <g transform="matrix(1,0,0,1,-17.31,-21.85)">
                            <path d="M181.69,73.42C182.445,73.406 183.172,73.711 183.69,74.26C184.755,75.371 184.755,77.149 183.69,78.26C182.59,79.351 180.79,79.351 179.69,78.26C179.167,77.727 178.875,77.007 178.88,76.26C178.872,75.757 179.003,75.262 179.26,74.83C179.498,74.413 179.843,74.068 180.26,73.83C180.69,73.564 181.185,73.422 181.69,73.42ZM181.69,74.42C181.211,74.411 180.75,74.603 180.42,74.95C180.077,75.306 179.893,75.786 179.91,76.28C179.885,76.83 180.128,77.359 180.56,77.7C180.882,77.969 181.29,78.115 181.71,78.11C182.182,78.115 182.635,77.922 182.96,77.58C183.645,76.846 183.645,75.694 182.96,74.96C182.631,74.605 182.163,74.412 181.68,74.43L181.69,74.42Z" style="fill:rgb(0,73,144);fill-rule:nonzero;"/>
                        </g>
                        <g transform="matrix(1,0,0,1,-17.31,-21.85)">
                            <path d="M185.54,73.56L186.63,73.56C187.063,73.534 187.497,73.589 187.91,73.72C188.167,73.827 188.384,74.013 188.53,74.25C188.685,74.517 188.765,74.821 188.76,75.13C188.77,75.45 188.679,75.765 188.5,76.03C188.306,76.286 188.037,76.475 187.73,76.57L189,79L187.88,79L186.66,76.71L186.56,76.71L186.56,79L185.56,79L185.54,73.56ZM186.54,75.68L186.87,75.68C187.101,75.702 187.334,75.657 187.54,75.55C187.674,75.45 187.746,75.286 187.73,75.12C187.732,75.01 187.701,74.902 187.64,74.81C187.575,74.726 187.489,74.66 187.39,74.62C187.206,74.58 187.018,74.563 186.83,74.57L186.54,74.57L186.54,75.68Z" style="fill:rgb(0,73,144);fill-rule:nonzero;"/>
                        </g>
                    </g>
                </g>
            </g>
            <g transform="matrix(0.447731,0,0,0.447731,42.245,253.192)">
                <text x="457.481px" y="607.394px" style="font-family:'ArialMT', 'Arial', sans-serif;font-size:322.748px;fill:rgb(0,73,144);">V<tspan x="654.944px 834.441px " y="607.394px 607.394px ">en</tspan>tanilla</text>
                <text x="457.481px" y="901.019px" style="font-family:'Arial-BoldMT', 'Arial', sans-serif;font-weight:700;font-size:322.748px;fill:rgb(0,73,144);">virtual</text>
            </g>
        </g>
    </g>
</svg>
