<?xml version="1.0" encoding="UTF-8" standalone="no"?>
<!DOCTYPE svg PUBLIC "-//W3C//DTD SVG 1.1//EN" "http://www.w3.org/Graphics/SVG/1.1/DTD/svg11.dtd">
<svg width="100%" height="100%" viewBox="0 0 1349 292" version="1.1" xmlns="http://www.w3.org/2000/svg" xmlns:xlink="http://www.w3.org/1999/xlink" xml:space="preserve" xmlns:serif="http://www.serif.com/" style="fill-rule:evenodd;clip-rule:evenodd;stroke-linejoin:round;stroke-miterlimit:2;">
    <g transform="matrix(1,0,0,1,-285.893,-394.211)">
        <g transform="matrix(26.8957,0,0,26.8957,-8785.01,-19084.6)">
            <g transform="matrix(12,0,0,12,349.565,732.853)">
                <path d="M0.247,0.007C0.204,0.007 0.161,0.001 0.12,-0.01C0.079,-0.021 0.046,-0.036 0.021,-0.053L0.069,-0.148C0.093,-0.132 0.122,-0.119 0.156,-0.11C0.189,-0.1 0.222,-0.095 0.255,-0.095C0.33,-0.095 0.367,-0.115 0.367,-0.154C0.367,-0.173 0.358,-0.186 0.339,-0.193C0.32,-0.2 0.289,-0.207 0.247,-0.214C0.203,-0.221 0.167,-0.228 0.14,-0.237C0.112,-0.246 0.088,-0.261 0.068,-0.282C0.047,-0.304 0.037,-0.334 0.037,-0.373C0.037,-0.424 0.058,-0.464 0.101,-0.495C0.143,-0.525 0.2,-0.54 0.272,-0.54C0.309,-0.54 0.345,-0.536 0.382,-0.528C0.419,-0.519 0.449,-0.508 0.472,-0.494L0.424,-0.399C0.379,-0.426 0.328,-0.439 0.271,-0.439C0.234,-0.439 0.206,-0.434 0.188,-0.423C0.169,-0.411 0.159,-0.397 0.159,-0.379C0.159,-0.359 0.169,-0.345 0.19,-0.337C0.21,-0.328 0.241,-0.32 0.284,-0.313C0.327,-0.306 0.362,-0.299 0.389,-0.29C0.416,-0.281 0.44,-0.267 0.46,-0.246C0.479,-0.225 0.489,-0.196 0.489,-0.158C0.489,-0.108 0.467,-0.068 0.424,-0.038C0.381,-0.008 0.322,0.007 0.247,0.007Z" style="fill:rgb(28,37,68);fill-rule:nonzero;"/>
            </g>
            <g transform="matrix(12,0,0,12,355.745,732.853)">
                <path d="M0.756,-0.54C0.823,-0.54 0.877,-0.521 0.916,-0.482C0.955,-0.443 0.975,-0.384 0.975,-0.306L0.975,-0L0.85,-0L0.85,-0.29C0.85,-0.337 0.84,-0.372 0.819,-0.396C0.798,-0.419 0.769,-0.431 0.73,-0.431C0.688,-0.431 0.654,-0.417 0.629,-0.39C0.604,-0.362 0.591,-0.322 0.591,-0.271L0.591,-0L0.466,-0L0.466,-0.29C0.466,-0.337 0.456,-0.372 0.435,-0.396C0.414,-0.419 0.385,-0.431 0.346,-0.431C0.303,-0.431 0.27,-0.417 0.245,-0.39C0.22,-0.363 0.207,-0.323 0.207,-0.271L0.207,-0L0.082,-0L0.082,-0.534L0.201,-0.534L0.201,-0.466C0.221,-0.49 0.246,-0.508 0.276,-0.521C0.306,-0.534 0.339,-0.54 0.376,-0.54C0.416,-0.54 0.452,-0.533 0.483,-0.518C0.514,-0.502 0.538,-0.48 0.556,-0.451C0.578,-0.479 0.606,-0.501 0.641,-0.517C0.676,-0.532 0.714,-0.54 0.756,-0.54Z" style="fill:rgb(28,37,68);fill-rule:nonzero;"/>
            </g>
            <g transform="matrix(12,0,0,12,368.441,732.853)">
                <path d="M0.327,0.007C0.272,0.007 0.222,-0.005 0.178,-0.028C0.134,-0.051 0.1,-0.084 0.075,-0.126C0.05,-0.167 0.038,-0.214 0.038,-0.267C0.038,-0.32 0.05,-0.367 0.075,-0.408C0.1,-0.449 0.134,-0.482 0.178,-0.505C0.221,-0.528 0.271,-0.54 0.327,-0.54C0.38,-0.54 0.426,-0.529 0.466,-0.508C0.505,-0.487 0.535,-0.456 0.555,-0.416L0.459,-0.36C0.444,-0.385 0.425,-0.403 0.402,-0.416C0.379,-0.428 0.353,-0.434 0.326,-0.434C0.279,-0.434 0.241,-0.419 0.21,-0.389C0.179,-0.358 0.164,-0.318 0.164,-0.267C0.164,-0.216 0.179,-0.176 0.21,-0.146C0.24,-0.115 0.279,-0.1 0.326,-0.1C0.353,-0.1 0.379,-0.106 0.402,-0.118C0.425,-0.131 0.444,-0.149 0.459,-0.174L0.555,-0.118C0.534,-0.078 0.504,-0.047 0.465,-0.025C0.425,-0.004 0.379,0.007 0.327,0.007Z" style="fill:rgb(28,37,68);fill-rule:nonzero;"/>
            </g>
            <g transform="matrix(12,0,0,12,375.413,732.853)">
                <path d="M0.286,-0.54C0.365,-0.54 0.425,-0.521 0.467,-0.484C0.508,-0.446 0.529,-0.389 0.529,-0.313L0.529,-0L0.411,-0L0.411,-0.065C0.396,-0.042 0.374,-0.024 0.345,-0.012C0.317,0.001 0.283,0.007 0.243,0.007C0.203,0.007 0.168,0 0.138,-0.014C0.108,-0.027 0.085,-0.046 0.069,-0.07C0.052,-0.095 0.044,-0.122 0.044,-0.153C0.044,-0.201 0.062,-0.239 0.098,-0.269C0.133,-0.298 0.189,-0.312 0.266,-0.312L0.404,-0.312L0.404,-0.32C0.404,-0.357 0.393,-0.386 0.371,-0.406C0.348,-0.426 0.315,-0.436 0.271,-0.436C0.241,-0.436 0.212,-0.431 0.183,-0.422C0.154,-0.413 0.129,-0.4 0.109,-0.383L0.06,-0.474C0.088,-0.495 0.122,-0.512 0.161,-0.523C0.2,-0.534 0.242,-0.54 0.286,-0.54ZM0.269,-0.084C0.3,-0.084 0.328,-0.091 0.353,-0.106C0.377,-0.12 0.394,-0.14 0.404,-0.167L0.404,-0.229L0.275,-0.229C0.203,-0.229 0.167,-0.205 0.167,-0.158C0.167,-0.135 0.176,-0.117 0.194,-0.104C0.212,-0.091 0.237,-0.084 0.269,-0.084Z" style="fill:rgb(28,37,68);fill-rule:nonzero;"/>
            </g>
            <g transform="matrix(12,0,0,12,382.697,732.853)">
                <path d="M0.201,-0.456C0.237,-0.512 0.3,-0.54 0.391,-0.54L0.391,-0.421C0.38,-0.423 0.371,-0.424 0.362,-0.424C0.313,-0.424 0.275,-0.41 0.248,-0.382C0.221,-0.353 0.207,-0.312 0.207,-0.259L0.207,-0L0.082,-0L0.082,-0.534L0.201,-0.534L0.201,-0.456Z" style="fill:rgb(28,37,68);fill-rule:nonzero;"/>
            </g>
        </g>
        <g>
            <g transform="matrix(33.8061,0,0,33.8061,-17948.2,-6060.89)">
                <path d="M540.875,190.945L540.875,191.32L539.375,191.32L539.375,199.57L547.625,199.57L547.625,191.32L546.125,191.32L546.125,190.945L545.375,190.945L545.375,191.32L541.625,191.32L541.625,190.945L540.875,190.945ZM540.125,192.07L540.875,192.07L540.875,192.445L541.625,192.445L541.625,192.07L545.375,192.07L545.375,192.445L546.125,192.445L546.125,192.07L546.875,192.07L546.875,192.82L540.125,192.82L540.125,192.07ZM540.125,193.57L546.875,193.57L546.875,198.82L540.125,198.82L540.125,193.57Z" style="fill:rgb(28,37,68);fill-rule:nonzero;"/>
            </g>
            <g transform="matrix(58.2899,0,0,58.2899,-31211.9,-10895.8)">
                <path d="M545.105,194.426L543.125,196.406L542.269,195.551L541.73,196.09L542.855,197.215L543.125,197.473L543.394,197.215L545.644,194.965L545.105,194.426Z" style="fill:rgb(254,204,13);fill-rule:nonzero;"/>
            </g>
        </g>
    </g>
</svg>
