<?xml version="1.0" encoding="UTF-8" standalone="no"?>
<!DOCTYPE svg PUBLIC "-//W3C//DTD SVG 1.1//EN"
 "http://www.w3.org/Graphics/SVG/1.1/DTD/svg11.dtd">
<!-- Generated by graphviz version 2.47.3 (20210619.1520)
 -->
<!-- Title: dependencies Pages: 1 -->
<svg width="422pt" height="174pt"
 viewBox="0.00 0.00 422.00 173.80" xmlns="http://www.w3.org/2000/svg" xmlns:xlink="http://www.w3.org/1999/xlink">
<g id="graph0" class="graph" transform="scale(1 1) rotate(0) translate(4 169.8)">
<title>dependencies</title>
<polygon fill="white" stroke="transparent" points="-4,4 -4,-169.8 418,-169.8 418,4 -4,4"/>
<text text-anchor="middle" x="207" y="-8.2" font-family="sans-serif" font-size="14.00">dependencies</text>
<g id="clust1" class="cluster">
<title>cluster_FacultiesPageModule</title>
<polygon fill="none" stroke="black" stroke-dasharray="1,5" points="8,-32.8 8,-157.8 406,-157.8 406,-32.8 8,-32.8"/>
</g>
<g id="clust2" class="cluster">
<title>cluster_FacultiesPageModule_declarations</title>
<polygon fill="none" stroke="black" points="222,-40.8 222,-92.8 398,-92.8 398,-40.8 222,-40.8"/>
</g>
<g id="clust4" class="cluster">
<title>cluster_FacultiesPageModule_imports</title>
<polygon fill="none" stroke="black" points="16,-40.8 16,-92.8 214,-92.8 214,-40.8 16,-40.8"/>
</g>
<!-- FacultiesPageComponent -->
<g id="node1" class="node">
<title>FacultiesPageComponent</title>
<polygon fill="#ffffb3" stroke="black" points="389.59,-84.8 230.41,-84.8 230.41,-48.8 389.59,-48.8 389.59,-84.8"/>
<text text-anchor="middle" x="310" y="-62.6" font-family="Times,serif" font-size="14.00">FacultiesPageComponent</text>
</g>
<!-- FacultiesPageModule -->
<g id="node2" class="node">
<title>FacultiesPageModule</title>
<polygon fill="#8dd3c7" stroke="black" points="280.8,-149.8 277.8,-153.8 256.8,-153.8 253.8,-149.8 143.2,-149.8 143.2,-113.8 280.8,-113.8 280.8,-149.8"/>
<text text-anchor="middle" x="212" y="-127.6" font-family="Times,serif" font-size="14.00">FacultiesPageModule</text>
</g>
<!-- FacultiesPageComponent&#45;&gt;FacultiesPageModule -->
<g id="edge1" class="edge">
<title>FacultiesPageComponent&#45;&gt;FacultiesPageModule</title>
<path fill="none" stroke="black" d="M255.55,-84.91C255.55,-84.91 255.55,-103.79 255.55,-103.79"/>
<polygon fill="black" stroke="black" points="252.05,-103.79 255.55,-113.79 259.05,-103.79 252.05,-103.79"/>
</g>
<!-- FacultiesPageRoutingModule -->
<g id="node3" class="node">
<title>FacultiesPageRoutingModule</title>
<polygon fill="#8dd3c7" stroke="black" points="206.42,-84.8 203.42,-88.8 182.42,-88.8 179.42,-84.8 23.58,-84.8 23.58,-48.8 206.42,-48.8 206.42,-84.8"/>
<text text-anchor="middle" x="115" y="-62.6" font-family="Times,serif" font-size="14.00">FacultiesPageRoutingModule</text>
</g>
<!-- FacultiesPageRoutingModule&#45;&gt;FacultiesPageModule -->
<g id="edge2" class="edge">
<title>FacultiesPageRoutingModule&#45;&gt;FacultiesPageModule</title>
<path fill="none" stroke="black" d="M174.78,-84.91C174.78,-84.91 174.78,-103.79 174.78,-103.79"/>
<polygon fill="black" stroke="black" points="171.28,-103.79 174.78,-113.79 178.28,-103.79 171.28,-103.79"/>
</g>
</g>
</svg>
