<?xml version="1.0" encoding="UTF-8" standalone="no"?>
<!DOCTYPE svg PUBLIC "-//W3C//DTD SVG 1.1//EN"
 "http://www.w3.org/Graphics/SVG/1.1/DTD/svg11.dtd">
<!-- Generated by graphviz version 2.47.3 (20210619.1520)
 -->
<!-- Title: dependencies Pages: 1 -->
<svg width="422pt" height="174pt"
 viewBox="0.00 0.00 422.00 173.80" xmlns="http://www.w3.org/2000/svg" xmlns:xlink="http://www.w3.org/1999/xlink">
<g id="graph0" class="graph" transform="scale(1 1) rotate(0) translate(4 169.8)">
<title>dependencies</title>
<polygon fill="white" stroke="transparent" points="-4,4 -4,-169.8 418,-169.8 418,4 -4,4"/>
<text text-anchor="middle" x="207" y="-8.2" font-family="sans-serif" font-size="14.00">dependencies</text>
<g id="clust1" class="cluster">
<title>cluster_RequestsPageModule</title>
<polygon fill="none" stroke="black" stroke-dasharray="1,5" points="8,-32.8 8,-157.8 406,-157.8 406,-32.8 8,-32.8"/>
</g>
<g id="clust4" class="cluster">
<title>cluster_RequestsPageModule_imports</title>
<polygon fill="none" stroke="black" points="200,-40.8 200,-92.8 398,-92.8 398,-40.8 200,-40.8"/>
</g>
<g id="clust2" class="cluster">
<title>cluster_RequestsPageModule_declarations</title>
<polygon fill="none" stroke="black" points="16,-40.8 16,-92.8 192,-92.8 192,-40.8 16,-40.8"/>
</g>
<!-- RequestsPageComponent -->
<g id="node1" class="node">
<title>RequestsPageComponent</title>
<polygon fill="#ffffb3" stroke="black" points="183.59,-84.8 24.41,-84.8 24.41,-48.8 183.59,-48.8 183.59,-84.8"/>
<text text-anchor="middle" x="104" y="-62.6" font-family="Times,serif" font-size="14.00">RequestsPageComponent</text>
</g>
<!-- RequestsPageModule -->
<g id="node2" class="node">
<title>RequestsPageModule</title>
<polygon fill="#8dd3c7" stroke="black" points="269.81,-149.8 266.81,-153.8 245.81,-153.8 242.81,-149.8 132.19,-149.8 132.19,-113.8 269.81,-113.8 269.81,-149.8"/>
<text text-anchor="middle" x="201" y="-127.6" font-family="Times,serif" font-size="14.00">RequestsPageModule</text>
</g>
<!-- RequestsPageComponent&#45;&gt;RequestsPageModule -->
<g id="edge1" class="edge">
<title>RequestsPageComponent&#45;&gt;RequestsPageModule</title>
<path fill="none" stroke="black" d="M157.95,-84.91C157.95,-84.91 157.95,-103.79 157.95,-103.79"/>
<polygon fill="black" stroke="black" points="154.45,-103.79 157.95,-113.79 161.45,-103.79 154.45,-103.79"/>
</g>
<!-- RequestsPageRoutingModule -->
<g id="node3" class="node">
<title>RequestsPageRoutingModule</title>
<polygon fill="#8dd3c7" stroke="black" points="390.43,-84.8 387.43,-88.8 366.43,-88.8 363.43,-84.8 207.57,-84.8 207.57,-48.8 390.43,-48.8 390.43,-84.8"/>
<text text-anchor="middle" x="299" y="-62.6" font-family="Times,serif" font-size="14.00">RequestsPageRoutingModule</text>
</g>
<!-- RequestsPageRoutingModule&#45;&gt;RequestsPageModule -->
<g id="edge2" class="edge">
<title>RequestsPageRoutingModule&#45;&gt;RequestsPageModule</title>
<path fill="none" stroke="black" d="M238.72,-84.91C238.72,-84.91 238.72,-103.79 238.72,-103.79"/>
<polygon fill="black" stroke="black" points="235.22,-103.79 238.72,-113.79 242.22,-103.79 235.22,-103.79"/>
</g>
</g>
</svg>
