<?xml version="1.0" encoding="UTF-8" standalone="no"?>
<!DOCTYPE svg PUBLIC "-//W3C//DTD SVG 1.1//EN"
 "http://www.w3.org/Graphics/SVG/1.1/DTD/svg11.dtd">
<!-- Generated by graphviz version 2.47.3 (20210619.1520)
 -->
<!-- Title: dependencies Pages: 1 -->
<svg width="538pt" height="174pt"
 viewBox="0.00 0.00 538.00 173.80" xmlns="http://www.w3.org/2000/svg" xmlns:xlink="http://www.w3.org/1999/xlink">
<g id="graph0" class="graph" transform="scale(1 1) rotate(0) translate(4 169.8)">
<title>dependencies</title>
<polygon fill="white" stroke="transparent" points="-4,4 -4,-169.8 534,-169.8 534,4 -4,4"/>
<text text-anchor="middle" x="265" y="-8.2" font-family="sans-serif" font-size="14.00">dependencies</text>
<g id="clust1" class="cluster">
<title>cluster_ProfilePageModule</title>
<polygon fill="none" stroke="black" stroke-dasharray="1,5" points="8,-32.8 8,-157.8 522,-157.8 522,-32.8 8,-32.8"/>
</g>
<g id="clust2" class="cluster">
<title>cluster_ProfilePageModule_declarations</title>
<polygon fill="none" stroke="black" points="352,-40.8 352,-92.8 514,-92.8 514,-40.8 352,-40.8"/>
</g>
<g id="clust7" class="cluster">
<title>cluster_ProfilePageModule_providers</title>
<polygon fill="none" stroke="black" points="210,-40.8 210,-92.8 344,-92.8 344,-40.8 210,-40.8"/>
</g>
<g id="clust4" class="cluster">
<title>cluster_ProfilePageModule_imports</title>
<polygon fill="none" stroke="black" points="16,-40.8 16,-92.8 202,-92.8 202,-40.8 16,-40.8"/>
</g>
<!-- ProfilePageComponent -->
<g id="node1" class="node">
<title>ProfilePageComponent</title>
<polygon fill="#ffffb3" stroke="black" points="506.14,-84.8 359.86,-84.8 359.86,-48.8 506.14,-48.8 506.14,-84.8"/>
<text text-anchor="middle" x="433" y="-62.6" font-family="Times,serif" font-size="14.00">ProfilePageComponent</text>
</g>
<!-- ProfilePageModule -->
<g id="node2" class="node">
<title>ProfilePageModule</title>
<polygon fill="#8dd3c7" stroke="black" points="339.36,-149.8 336.36,-153.8 315.36,-153.8 312.36,-149.8 214.64,-149.8 214.64,-113.8 339.36,-113.8 339.36,-149.8"/>
<text text-anchor="middle" x="277" y="-127.6" font-family="Times,serif" font-size="14.00">ProfilePageModule</text>
</g>
<!-- ProfilePageComponent&#45;&gt;ProfilePageModule -->
<g id="edge1" class="edge">
<title>ProfilePageComponent&#45;&gt;ProfilePageModule</title>
<path fill="none" stroke="black" d="M433,-84.91C433,-104.14 433,-131.8 433,-131.8 433,-131.8 349.55,-131.8 349.55,-131.8"/>
<polygon fill="black" stroke="black" points="349.55,-128.3 339.55,-131.8 349.55,-135.3 349.55,-128.3"/>
</g>
<!-- ProfilePageRoutingModule -->
<g id="node3" class="node">
<title>ProfilePageRoutingModule</title>
<polygon fill="#8dd3c7" stroke="black" points="193.98,-84.8 190.98,-88.8 169.98,-88.8 166.98,-84.8 24.02,-84.8 24.02,-48.8 193.98,-48.8 193.98,-84.8"/>
<text text-anchor="middle" x="109" y="-62.6" font-family="Times,serif" font-size="14.00">ProfilePageRoutingModule</text>
</g>
<!-- ProfilePageRoutingModule&#45;&gt;ProfilePageModule -->
<g id="edge2" class="edge">
<title>ProfilePageRoutingModule&#45;&gt;ProfilePageModule</title>
<path fill="none" stroke="black" d="M109,-84.91C109,-104.14 109,-131.8 109,-131.8 109,-131.8 204.44,-131.8 204.44,-131.8"/>
<polygon fill="black" stroke="black" points="204.44,-135.3 214.44,-131.8 204.44,-128.3 204.44,-135.3"/>
</g>
<!-- AuthService -->
<g id="node4" class="node">
<title>AuthService</title>
<ellipse fill="#fdb462" stroke="black" cx="277" cy="-66.8" rx="59.11" ry="18"/>
<text text-anchor="middle" x="277" y="-62.6" font-family="Times,serif" font-size="14.00">AuthService</text>
</g>
<!-- AuthService&#45;&gt;ProfilePageModule -->
<g id="edge3" class="edge">
<title>AuthService&#45;&gt;ProfilePageModule</title>
<path fill="none" stroke="black" d="M277,-84.91C277,-84.91 277,-103.79 277,-103.79"/>
<polygon fill="black" stroke="black" points="273.5,-103.79 277,-113.79 280.5,-103.79 273.5,-103.79"/>
</g>
</g>
</svg>
