<?xml version="1.0" encoding="UTF-8" standalone="no"?>
<!DOCTYPE svg PUBLIC "-//W3C//DTD SVG 1.1//EN"
 "http://www.w3.org/Graphics/SVG/1.1/DTD/svg11.dtd">
<!-- Generated by graphviz version 2.47.3 (20210619.1520)
 -->
<!-- Title: dependencies Pages: 1 -->
<svg width="538pt" height="174pt"
 viewBox="0.00 0.00 538.00 173.80" xmlns="http://www.w3.org/2000/svg" xmlns:xlink="http://www.w3.org/1999/xlink">
<g id="graph0" class="graph" transform="scale(1 1) rotate(0) translate(4 169.8)">
<title>dependencies</title>
<polygon fill="white" stroke="transparent" points="-4,4 -4,-169.8 534,-169.8 534,4 -4,4"/>
<text text-anchor="middle" x="265" y="-8.2" font-family="sans-serif" font-size="14.00">dependencies</text>
<g id="clust1" class="cluster">
<title>cluster_ProfilePageModule</title>
<polygon fill="none" stroke="black" stroke-dasharray="1,5" points="8,-32.8 8,-157.8 522,-157.8 522,-32.8 8,-32.8"/>
</g>
<g id="clust4" class="cluster">
<title>cluster_ProfilePageModule_imports</title>
<polygon fill="none" stroke="black" points="328,-40.8 328,-92.8 514,-92.8 514,-40.8 328,-40.8"/>
</g>
<g id="clust7" class="cluster">
<title>cluster_ProfilePageModule_providers</title>
<polygon fill="none" stroke="black" points="186,-40.8 186,-92.8 320,-92.8 320,-40.8 186,-40.8"/>
</g>
<g id="clust2" class="cluster">
<title>cluster_ProfilePageModule_declarations</title>
<polygon fill="none" stroke="black" points="16,-40.8 16,-92.8 178,-92.8 178,-40.8 16,-40.8"/>
</g>
<!-- ProfilePageComponent -->
<g id="node1" class="node">
<title>ProfilePageComponent</title>
<polygon fill="#ffffb3" stroke="black" points="170.14,-84.8 23.86,-84.8 23.86,-48.8 170.14,-48.8 170.14,-84.8"/>
<text text-anchor="middle" x="97" y="-62.6" font-family="Times,serif" font-size="14.00">ProfilePageComponent</text>
</g>
<!-- ProfilePageModule -->
<g id="node2" class="node">
<title>ProfilePageModule</title>
<polygon fill="#8dd3c7" stroke="black" points="315.36,-149.8 312.36,-153.8 291.36,-153.8 288.36,-149.8 190.64,-149.8 190.64,-113.8 315.36,-113.8 315.36,-149.8"/>
<text text-anchor="middle" x="253" y="-127.6" font-family="Times,serif" font-size="14.00">ProfilePageModule</text>
</g>
<!-- ProfilePageComponent&#45;&gt;ProfilePageModule -->
<g id="edge1" class="edge">
<title>ProfilePageComponent&#45;&gt;ProfilePageModule</title>
<path fill="none" stroke="black" d="M97,-84.91C97,-104.14 97,-131.8 97,-131.8 97,-131.8 180.45,-131.8 180.45,-131.8"/>
<polygon fill="black" stroke="black" points="180.45,-135.3 190.45,-131.8 180.45,-128.3 180.45,-135.3"/>
</g>
<!-- ProfilePageRoutingModule -->
<g id="node3" class="node">
<title>ProfilePageRoutingModule</title>
<polygon fill="#8dd3c7" stroke="black" points="505.98,-84.8 502.98,-88.8 481.98,-88.8 478.98,-84.8 336.02,-84.8 336.02,-48.8 505.98,-48.8 505.98,-84.8"/>
<text text-anchor="middle" x="421" y="-62.6" font-family="Times,serif" font-size="14.00">ProfilePageRoutingModule</text>
</g>
<!-- ProfilePageRoutingModule&#45;&gt;ProfilePageModule -->
<g id="edge2" class="edge">
<title>ProfilePageRoutingModule&#45;&gt;ProfilePageModule</title>
<path fill="none" stroke="black" d="M421,-84.91C421,-104.14 421,-131.8 421,-131.8 421,-131.8 325.56,-131.8 325.56,-131.8"/>
<polygon fill="black" stroke="black" points="325.56,-128.3 315.56,-131.8 325.56,-135.3 325.56,-128.3"/>
</g>
<!-- AuthService -->
<g id="node4" class="node">
<title>AuthService</title>
<ellipse fill="#fdb462" stroke="black" cx="253" cy="-66.8" rx="59.11" ry="18"/>
<text text-anchor="middle" x="253" y="-62.6" font-family="Times,serif" font-size="14.00">AuthService</text>
</g>
<!-- AuthService&#45;&gt;ProfilePageModule -->
<g id="edge3" class="edge">
<title>AuthService&#45;&gt;ProfilePageModule</title>
<path fill="none" stroke="black" d="M253,-84.91C253,-84.91 253,-103.79 253,-103.79"/>
<polygon fill="black" stroke="black" points="249.5,-103.79 253,-113.79 256.5,-103.79 249.5,-103.79"/>
</g>
</g>
</svg>
