<?xml version="1.0" encoding="UTF-8" standalone="no"?>
<!DOCTYPE svg PUBLIC "-//W3C//DTD SVG 1.1//EN" "http://www.w3.org/Graphics/SVG/1.1/DTD/svg11.dtd">
<svg width="100%" height="100%" viewBox="0 0 1000 1000" version="1.1" xmlns="http://www.w3.org/2000/svg" xmlns:xlink="http://www.w3.org/1999/xlink" xml:space="preserve" xmlns:serif="http://www.serif.com/" style="fill-rule:evenodd;clip-rule:evenodd;stroke-linejoin:round;stroke-miterlimit:2;">
    <g transform="matrix(1.07436,0,0,1.07436,-28.2726,-66.1994)">
        <path d="M957.102,294.314C957.102,165.885 852.834,61.617 724.405,61.617L259.012,61.617C130.584,61.617 26.316,165.885 26.316,294.314L26.316,759.707C26.316,888.136 130.584,992.404 259.012,992.404L724.405,992.404C852.834,992.404 957.102,888.136 957.102,759.707L957.102,294.314Z" style="fill:white;"/>
    </g>
    <g transform="matrix(2.04788,0,0,2.04788,-400.623,-605.856)">
        <g transform="matrix(33.8061,0,0,33.8061,-17948.2,-6060.89)">
            <path d="M540.875,190.945L540.875,191.32L539.375,191.32L539.375,199.57L547.625,199.57L547.625,191.32L546.125,191.32L546.125,190.945L545.375,190.945L545.375,191.32L541.625,191.32L541.625,190.945L540.875,190.945ZM540.125,192.07L540.875,192.07L540.875,192.445L541.625,192.445L541.625,192.07L545.375,192.07L545.375,192.445L546.125,192.445L546.125,192.07L546.875,192.07L546.875,192.82L540.125,192.82L540.125,192.07ZM540.125,193.57L546.875,193.57L546.875,198.82L540.125,198.82L540.125,193.57Z" style="fill:rgb(28,37,68);fill-rule:nonzero;"/>
        </g>
        <g transform="matrix(58.2899,0,0,58.2899,-31211.9,-10895.8)">
            <path d="M545.105,194.426L543.125,196.406L542.269,195.551L541.73,196.09L542.855,197.215L543.125,197.473L543.394,197.215L545.644,194.965L545.105,194.426Z" style="fill:rgb(254,204,13);fill-rule:nonzero;"/>
        </g>
    </g>
</svg>
