<?xml version="1.0" encoding="UTF-8" standalone="no"?>
<!DOCTYPE svg PUBLIC "-//W3C//DTD SVG 1.1//EN"
 "http://www.w3.org/Graphics/SVG/1.1/DTD/svg11.dtd">
<!-- Generated by graphviz version 2.47.3 (20210619.1520)
 -->
<!-- Title: dependencies Pages: 1 -->
<svg width="442pt" height="174pt"
 viewBox="0.00 0.00 442.00 173.80" xmlns="http://www.w3.org/2000/svg" xmlns:xlink="http://www.w3.org/1999/xlink">
<g id="graph0" class="graph" transform="scale(1 1) rotate(0) translate(4 169.8)">
<title>dependencies</title>
<polygon fill="white" stroke="transparent" points="-4,4 -4,-169.8 438,-169.8 438,4 -4,4"/>
<text text-anchor="middle" x="217" y="-8.2" font-family="sans-serif" font-size="14.00">dependencies</text>
<g id="clust1" class="cluster">
<title>cluster_DashboardPageModule</title>
<polygon fill="none" stroke="black" stroke-dasharray="1,5" points="8,-32.8 8,-157.8 426,-157.8 426,-32.8 8,-32.8"/>
</g>
<g id="clust4" class="cluster">
<title>cluster_DashboardPageModule_imports</title>
<polygon fill="none" stroke="black" points="210,-40.8 210,-92.8 418,-92.8 418,-40.8 210,-40.8"/>
</g>
<g id="clust2" class="cluster">
<title>cluster_DashboardPageModule_declarations</title>
<polygon fill="none" stroke="black" points="16,-40.8 16,-92.8 202,-92.8 202,-40.8 16,-40.8"/>
</g>
<!-- DashboardPageComponent -->
<g id="node1" class="node">
<title>DashboardPageComponent</title>
<polygon fill="#ffffb3" stroke="black" points="193.69,-84.8 24.31,-84.8 24.31,-48.8 193.69,-48.8 193.69,-84.8"/>
<text text-anchor="middle" x="109" y="-62.6" font-family="Times,serif" font-size="14.00">DashboardPageComponent</text>
</g>
<!-- DashboardPageModule -->
<g id="node2" class="node">
<title>DashboardPageModule</title>
<polygon fill="#8dd3c7" stroke="black" points="284.9,-149.8 281.9,-153.8 260.9,-153.8 257.9,-149.8 137.1,-149.8 137.1,-113.8 284.9,-113.8 284.9,-149.8"/>
<text text-anchor="middle" x="211" y="-127.6" font-family="Times,serif" font-size="14.00">DashboardPageModule</text>
</g>
<!-- DashboardPageComponent&#45;&gt;DashboardPageModule -->
<g id="edge1" class="edge">
<title>DashboardPageComponent&#45;&gt;DashboardPageModule</title>
<path fill="none" stroke="black" d="M165.45,-84.91C165.45,-84.91 165.45,-103.79 165.45,-103.79"/>
<polygon fill="black" stroke="black" points="161.95,-103.79 165.45,-113.79 168.95,-103.79 161.95,-103.79"/>
</g>
<!-- DashboardPageRoutingModule -->
<g id="node3" class="node">
<title>DashboardPageRoutingModule</title>
<polygon fill="#8dd3c7" stroke="black" points="410.02,-84.8 407.02,-88.8 386.02,-88.8 383.02,-84.8 217.98,-84.8 217.98,-48.8 410.02,-48.8 410.02,-84.8"/>
<text text-anchor="middle" x="314" y="-62.6" font-family="Times,serif" font-size="14.00">DashboardPageRoutingModule</text>
</g>
<!-- DashboardPageRoutingModule&#45;&gt;DashboardPageModule -->
<g id="edge2" class="edge">
<title>DashboardPageRoutingModule&#45;&gt;DashboardPageModule</title>
<path fill="none" stroke="black" d="M251.22,-84.91C251.22,-84.91 251.22,-103.79 251.22,-103.79"/>
<polygon fill="black" stroke="black" points="247.72,-103.79 251.22,-113.79 254.72,-103.79 247.72,-103.79"/>
</g>
</g>
</svg>
