<?xml version="1.0" encoding="UTF-8" standalone="no"?>
<!DOCTYPE svg PUBLIC "-//W3C//DTD SVG 1.1//EN"
 "http://www.w3.org/Graphics/SVG/1.1/DTD/svg11.dtd">
<!-- Generated by graphviz version 2.47.3 (20210619.1520)
 -->
<!-- Title: dependencies Pages: 1 -->
<svg width="536pt" height="174pt"
 viewBox="0.00 0.00 536.00 173.80" xmlns="http://www.w3.org/2000/svg" xmlns:xlink="http://www.w3.org/1999/xlink">
<g id="graph0" class="graph" transform="scale(1 1) rotate(0) translate(4 169.8)">
<title>dependencies</title>
<polygon fill="white" stroke="transparent" points="-4,4 -4,-169.8 532,-169.8 532,4 -4,4"/>
<text text-anchor="middle" x="264" y="-8.2" font-family="sans-serif" font-size="14.00">dependencies</text>
<g id="clust1" class="cluster">
<title>cluster_PasswordRecoveryPageModule</title>
<polygon fill="none" stroke="black" stroke-dasharray="1,5" points="8,-32.8 8,-157.8 520,-157.8 520,-32.8 8,-32.8"/>
</g>
<g id="clust2" class="cluster">
<title>cluster_PasswordRecoveryPageModule_declarations</title>
<polygon fill="none" stroke="black" points="280,-40.8 280,-92.8 512,-92.8 512,-40.8 280,-40.8"/>
</g>
<g id="clust4" class="cluster">
<title>cluster_PasswordRecoveryPageModule_imports</title>
<polygon fill="none" stroke="black" points="16,-40.8 16,-92.8 272,-92.8 272,-40.8 16,-40.8"/>
</g>
<!-- PasswordRecoveryPageComponent -->
<g id="node1" class="node">
<title>PasswordRecoveryPageComponent</title>
<polygon fill="#ffffb3" stroke="black" points="503.84,-84.8 288.16,-84.8 288.16,-48.8 503.84,-48.8 503.84,-84.8"/>
<text text-anchor="middle" x="396" y="-62.6" font-family="Times,serif" font-size="14.00">PasswordRecoveryPageComponent</text>
</g>
<!-- PasswordRecoveryPageModule -->
<g id="node2" class="node">
<title>PasswordRecoveryPageModule</title>
<polygon fill="#8dd3c7" stroke="black" points="367.06,-149.8 364.06,-153.8 343.06,-153.8 340.06,-149.8 172.94,-149.8 172.94,-113.8 367.06,-113.8 367.06,-149.8"/>
<text text-anchor="middle" x="270" y="-127.6" font-family="Times,serif" font-size="14.00">PasswordRecoveryPageModule</text>
</g>
<!-- PasswordRecoveryPageComponent&#45;&gt;PasswordRecoveryPageModule -->
<g id="edge1" class="edge">
<title>PasswordRecoveryPageComponent&#45;&gt;PasswordRecoveryPageModule</title>
<path fill="none" stroke="black" d="M327.55,-84.91C327.55,-84.91 327.55,-103.79 327.55,-103.79"/>
<polygon fill="black" stroke="black" points="324.05,-103.79 327.55,-113.79 331.05,-103.79 324.05,-103.79"/>
</g>
<!-- PasswordRecoveryPageRoutingModule -->
<g id="node3" class="node">
<title>PasswordRecoveryPageRoutingModule</title>
<polygon fill="#8dd3c7" stroke="black" points="263.67,-84.8 260.67,-88.8 239.67,-88.8 236.67,-84.8 24.33,-84.8 24.33,-48.8 263.67,-48.8 263.67,-84.8"/>
<text text-anchor="middle" x="144" y="-62.6" font-family="Times,serif" font-size="14.00">PasswordRecoveryPageRoutingModule</text>
</g>
<!-- PasswordRecoveryPageRoutingModule&#45;&gt;PasswordRecoveryPageModule -->
<g id="edge2" class="edge">
<title>PasswordRecoveryPageRoutingModule&#45;&gt;PasswordRecoveryPageModule</title>
<path fill="none" stroke="black" d="M218.28,-84.91C218.28,-84.91 218.28,-103.79 218.28,-103.79"/>
<polygon fill="black" stroke="black" points="214.78,-103.79 218.28,-113.79 221.78,-103.79 214.78,-103.79"/>
</g>
</g>
</svg>
