<svg id="SvgjsSvg1001" width="288" height="288" xmlns="http://www.w3.org/2000/svg" version="1.1" xmlns:xlink="http://www.w3.org/1999/xlink" xmlns:svgjs="http://svgjs.com/svgjs"><defs id="SvgjsDefs1002"></defs><g id="SvgjsG1008"><svg xmlns="http://www.w3.org/2000/svg" data-name="Layer 1" viewBox="17.19 19.88 127.28 74.1" width="288" height="288"><path fill="#ffffff" d="M20.87 19.88V35.72h9.45v2H18.5V19.88zM43.49 37.67A3 3 0 0142 38a1.83 1.83 0 01-1.31-.47A2 2 0 0140.17 36a5.09 5.09 0 01-2 1.51 6.71 6.71 0 01-2.51.47A6.8 6.8 0 0134 37.8a3.92 3.92 0 01-1.37-.63 3 3 0 01-.91-1.11 4.34 4.34 0 010-3.46 3.23 3.23 0 011-1.14 4.42 4.42 0 011.4-.66 16.41 16.41 0 011.61-.37c.58-.12 1.13-.21 1.66-.27a8.27 8.27 0 001.39-.25 2.23 2.23 0 00.95-.47 1.17 1.17 0 00.35-.91 2.1 2.1 0 00-.27-1.13 1.81 1.81 0 00-.67-.65 2.82 2.82 0 00-.93-.3 7 7 0 00-1-.07 4.51 4.51 0 00-2.25.51 2.17 2.17 0 00-1 1.94H31.84a4.71 4.71 0 01.5-2 3.75 3.75 0 011.2-1.33 4.88 4.88 0 011.71-.74 9.12 9.12 0 012.07-.23 12.47 12.47 0 011.73.13 4.46 4.46 0 011.57.51 3.05 3.05 0 011.12 1.08A3.53 3.53 0 0142.16 28v6.64a4.72 4.72 0 00.09 1.09c.06.24.26.35.59.35a2.45 2.45 0 00.65-.1zM40 31.05a2.82 2.82 0 01-1 .44c-.43.09-.89.16-1.36.22s-1 .12-1.44.2a5.05 5.05 0 00-1.3.36A2.27 2.27 0 0034 33a1.9 1.9 0 00-.37 1.25 1.66 1.66 0 00.22.89 1.7 1.7 0 00.55.58 2.1 2.1 0 00.78.32 4.19 4.19 0 001 .1 5.08 5.08 0 001.8-.28 3.84 3.84 0 001.23-.72 3 3 0 00.7-.95 2.37 2.37 0 00.22-1zM30.09 56.05A7.52 7.52 0 0125 57.66a7.46 7.46 0 01-5.12-1.6 6.2 6.2 0 01-1.81-4.92V41h3.58V51.14a7.06 7.06 0 00.11 1.3 2.66 2.66 0 00.48 1.13 2.74 2.74 0 001 .8 4.27 4.27 0 001.75.3 3.36 3.36 0 002.64-.85 4 4 0 00.73-2.68V41h3.58V51.14A6.17 6.17 0 0130.09 56.05zM37.75 45.51v1.64h.07a3.69 3.69 0 011.6-1.49 4.62 4.62 0 012-.47 5.66 5.66 0 012.14.35 3.3 3.3 0 011.31 1 3.82 3.82 0 01.67 1.53 9.5 9.5 0 01.19 2V57.3H42.49V50.64A4.2 4.2 0 0042 48.46a1.77 1.77 0 00-1.62-.72 2.27 2.27 0 00-1.92.79 4.41 4.41 0 00-.59 2.59V57.3H34.68V45.51zM48.29 43.69V41h3.23v2.67zm3.23 1.82V57.3H48.29V45.51zM57 57.3L53 45.51h3.4l2.48 8.05h0l2.48-8.05h3.22l-4 11.79zM69.4 54.47a2.87 2.87 0 002.09.7 2.92 2.92 0 001.69-.48 2.1 2.1 0 00.87-1H76.9a5.46 5.46 0 01-2.1 3 6.15 6.15 0 01-3.42.91 6.88 6.88 0 01-2.51-.44A5.29 5.29 0 0167 55.88a5.66 5.66 0 01-1.2-2 7.18 7.18 0 01-.42-2.51A6.84 6.84 0 0165.79 49 5.77 5.77 0 0167 47a6 6 0 011.91-1.31 6.09 6.09 0 012.45-.48 5.56 5.56 0 012.62.58 5.27 5.27 0 011.84 1.56 6.56 6.56 0 011 2.24 8.12 8.12 0 01.23 2.62H68.6A3.23 3.23 0 0069.4 54.47zm3.65-6.2a2.23 2.23 0 00-1.76-.64 2.87 2.87 0 00-1.29.26 2.46 2.46 0 00-.82.65 2.24 2.24 0 00-.43.82 3.13 3.13 0 00-.15.78h5.26A3.69 3.69 0 0073.05 48.27zM82.09 45.51V47.7h0a4.06 4.06 0 01.61-1 4.17 4.17 0 01.89-.79 4.07 4.07 0 011.07-.52 3.94 3.94 0 011.19-.18 2.8 2.8 0 01.71.11v3l-.55-.08-.62 0a3.4 3.4 0 00-1.5.3 2.46 2.46 0 00-1 .81 3.32 3.32 0 00-.54 1.19A6.92 6.92 0 0082.25 52V57.3H79V45.51zM90.61 54.37a1.82 1.82 0 00.56.61 2.22 2.22 0 00.78.35 3.59 3.59 0 00.93.12 3.68 3.68 0 00.71-.08 2.46 2.46 0 00.69-.25 1.72 1.72 0 00.51-.46 1.18 1.18 0 00.21-.72c0-.48-.33-.85-1-1.09a19.67 19.67 0 00-2.7-.73c-.47-.11-.94-.23-1.38-.38a4.44 4.44 0 01-1.2-.57 2.71 2.71 0 01-.84-.88A2.48 2.48 0 0187.59 49 3.56 3.56 0 0188 47.11 3.28 3.28 0 0189.21 46a5 5 0 011.64-.59 10.49 10.49 0 011.87-.17 9.54 9.54 0 011.86.18 4.81 4.81 0 011.6.62 3.8 3.8 0 011.18 1.15A3.87 3.87 0 0197.91 49H94.84a1.41 1.41 0 00-.71-1.26 3.25 3.25 0 00-1.5-.33l-.6 0a1.84 1.84 0 00-.58.15 1.09 1.09 0 00-.44.33.87.87 0 00-.18.58.9.9 0 00.31.71 2.46 2.46 0 00.84.44 8.93 8.93 0 001.17.31l1.35.29c.47.11.93.24 1.37.39a4.83 4.83 0 011.2.61 2.87 2.87 0 01.84.93 2.66 2.66 0 01.32 1.38 3.75 3.75 0 01-.46 2 3.8 3.8 0 01-1.22 1.27 5.23 5.23 0 01-1.72.67 10.07 10.07 0 01-2 .19 10.2 10.2 0 01-2-.2 5.34 5.34 0 01-1.75-.69 3.76 3.76 0 01-1.79-3.23h3.08A1.77 1.77 0 0090.61 54.37zM100.22 43.69V41h3.23v2.67zm3.23 1.82V57.3h-3.23V45.51zM114.37 55.79a3.3 3.3 0 01-1.49 1.38 5 5 0 01-2.08.42 5.06 5.06 0 01-2.33-.51 4.65 4.65 0 01-1.65-1.39 6.22 6.22 0 01-1-2 8.48 8.48 0 01-.33-2.37 8 8 0 01.33-2.29 5.77 5.77 0 011-1.95 4.92 4.92 0 011.63-1.36 4.85 4.85 0 012.28-.51 4.7 4.7 0 012 .44 3.6 3.6 0 011.5 1.31h0V41h3.24V57.3h-3.08V55.79zM114.24 50a3.41 3.41 0 00-.47-1.19 2.59 2.59 0 00-.85-.83 2.57 2.57 0 00-1.33-.32 2.63 2.63 0 00-1.34.32 2.45 2.45 0 00-.88.84 3.77 3.77 0 00-.48 1.2 6.26 6.26 0 000 2.77 3.81 3.81 0 00.52 1.22 2.71 2.71 0 00.89.86 2.28 2.28 0 001.28.33 2.63 2.63 0 001.34-.31 2.5 2.5 0 00.85-.86 3.86 3.86 0 00.46-1.22 7.25 7.25 0 00.13-1.41A7 7 0 00114.24 50zM119.8 49.13a3.83 3.83 0 01.57-1.89A3.9 3.9 0 01121.65 46a5.65 5.65 0 011.74-.65 9.91 9.91 0 012-.19 12.31 12.31 0 011.8.13 5.31 5.31 0 011.67.49 3.28 3.28 0 011.23 1 2.83 2.83 0 01.47 1.72v6.13a12.42 12.42 0 00.1 1.53 2.67 2.67 0 00.32 1.1h-3.29c-.06-.19-.11-.37-.15-.56s-.06-.39-.08-.58a4.14 4.14 0 01-1.82 1.11 7.07 7.07 0 01-2.14.32 6.16 6.16 0 01-1.58-.2 3.62 3.62 0 01-1.27-.64 3 3 0 01-.86-1.1 3.76 3.76 0 01-.3-1.57 3.36 3.36 0 01.35-1.65 3 3 0 01.91-1 4 4 0 011.28-.58 14.38 14.38 0 011.45-.31l1.43-.18a9.71 9.71 0 001.26-.21 2.22 2.22 0 00.86-.39.91.91 0 00.3-.77 1.74 1.74 0 00-.17-.83 1.25 1.25 0 00-.46-.48 1.91 1.91 0 00-.66-.23 6.77 6.77 0 00-.81 0 2.39 2.39 0 00-1.5.41 1.8 1.8 0 00-.64 1.36zm7.48 2.4a1.56 1.56 0 01-.51.28 4.37 4.37 0 01-.67.17c-.23.05-.48.09-.74.12l-.77.11c-.25 0-.48.11-.72.18a2.25 2.25 0 00-.62.31 1.54 1.54 0 00-.42.49 1.67 1.67 0 00-.16.75 1.58 1.58 0 00.16.73 1.17 1.17 0 00.44.47 1.76 1.76 0 00.63.24 3.84 3.84 0 00.76.07 2.9 2.9 0 001.48-.32 2.08 2.08 0 00.77-.76 2.48 2.48 0 00.31-.9 6 6 0 00.06-.73zM141.39 55.79a3.35 3.35 0 01-1.49 1.38 5 5 0 01-2.09.42 5.09 5.09 0 01-2.33-.51 4.74 4.74 0 01-1.65-1.39 6.43 6.43 0 01-1-2 8.48 8.48 0 01-.33-2.37 8 8 0 01.33-2.29 6 6 0 011-1.95 5 5 0 011.63-1.36 4.91 4.91 0 012.28-.51 4.74 4.74 0 012 .44 3.57 3.57 0 011.49 1.31h0V41h3.24V57.3h-3.08V55.79zM141.25 50a3.6 3.6 0 00-.46-1.19 2.73 2.73 0 00-.86-.83 2.53 2.53 0 00-1.32-.32 2.7 2.7 0 00-1.35.32 2.53 2.53 0 00-.88.84 3.54 3.54 0 00-.47 1.2 6.39 6.39 0 00-.15 1.4 5.82 5.82 0 00.16 1.37 3.59 3.59 0 00.51 1.22 2.81 2.81 0 00.89.86 2.34 2.34 0 001.29.33 2.59 2.59 0 001.33-.31 2.53 2.53 0 00.86-.86 3.85 3.85 0 00.45-1.22 7.25 7.25 0 00.14-1.41A7 7 0 00141.25 50zM24.87 78.62V73.7h0a2.83 2.83 0 01-1.4 1.2 5 5 0 01-1.86.36A4.48 4.48 0 0120.08 75a3.84 3.84 0 01-1.41-.9 4.79 4.79 0 01-1.06-1.66 6.69 6.69 0 01-.42-2.53 7.53 7.53 0 01.28-2.06 5.25 5.25 0 01.86-1.76 4.2 4.2 0 011.45-1.23 4.28 4.28 0 012-.46 4.44 4.44 0 011.81.37A2.75 2.75 0 0125 66h0V64.66h2.7v14zm-4.72-7.57a3.21 3.21 0 00.41 1.06 2.1 2.1 0 00.76.75 2.2 2.2 0 001.17.28 2.33 2.33 0 001.17-.27 2.28 2.28 0 00.76-.72 3.24 3.24 0 00.42-1 5.74 5.74 0 000-2.43 4 4 0 00-.41-1.08 2.33 2.33 0 00-.75-.78 2.07 2.07 0 00-1.13-.3 2.37 2.37 0 00-1.18.28 2.33 2.33 0 00-.78.75 3.42 3.42 0 00-.43 1.06A5.58 5.58 0 0020 69.84 6 6 0 0020.15 71.05zM36.84 75V73.56h-.06a3.23 3.23 0 01-1.4 1.3 4.07 4.07 0 01-1.76.4 5 5 0 01-1.87-.3 2.71 2.71 0 01-1.15-.85A3.42 3.42 0 0130 72.77 8.59 8.59 0 0129.84 71V64.66h2.84V70.5a3.67 3.67 0 00.4 1.91A1.55 1.55 0 0034.5 73a2 2 0 001.68-.69 3.8 3.8 0 00.52-2.27V64.66h2.84V75zM44.74 72.52a2.91 2.91 0 003.32.19 1.73 1.73 0 00.75-.91h2.5a4.72 4.72 0 01-1.84 2.66 5.4 5.4 0 01-3 .8 5.87 5.87 0 01-2.2-.39 4.49 4.49 0 01-1.66-1.11 4.77 4.77 0 01-1-1.72 6.19 6.19 0 01-.37-2.2 6.13 6.13 0 01.38-2.16 4.94 4.94 0 012.75-2.87 5.32 5.32 0 012.15-.42 4.94 4.94 0 012.3.51 4.49 4.49 0 011.6 1.36 5.59 5.59 0 01.91 2 7 7 0 01.2 2.3H44A2.85 2.85 0 0044.74 72.52zM48 67.08a2 2 0 00-1.55-.56 2.49 2.49 0 00-1.13.23 2.33 2.33 0 00-.72.57 2.09 2.09 0 00-.38.72 2.77 2.77 0 00-.13.68h4.61A3.37 3.37 0 0048 67.08zM64.41 64.66v1.9H62.33v5.12a1 1 0 001.2 1.2 3.46 3.46 0 00.46 0 3 3 0 00.42-.06V75a6.18 6.18 0 01-.8.08l-.86 0A8.26 8.26 0 0161.5 75a3 3 0 01-1-.35 1.81 1.81 0 01-.71-.74 2.68 2.68 0 01-.26-1.26v-6.1H57.77v-1.9h1.72V61.57h2.84v3.09zM72.76 75V73.56H72.7a3.18 3.18 0 01-1.4 1.3 4.07 4.07 0 01-1.76.4 4.89 4.89 0 01-1.86-.3 2.65 2.65 0 01-1.15-.85 3.28 3.28 0 01-.59-1.34A7.93 7.93 0 0165.77 71V64.66h2.84V70.5a3.58 3.58 0 00.4 1.91 1.52 1.52 0 001.41.63 2 2 0 001.68-.69 3.8 3.8 0 00.52-2.27V64.66h2.84V75zM71.22 59.31l-2.11 3.54h2l3.26-3.54zM19.83 81.8v1.87h.05a4.07 4.07 0 013.83-2.14 5.19 5.19 0 011.94.31 3.31 3.31 0 011.25.89 3.22 3.22 0 01.67 1.36 7.23 7.23 0 01.2 1.74v7.75H25.83v-8a2.35 2.35 0 00-.64-1.74 2.38 2.38 0 00-1.75-.64 4 4 0 00-1.54.28 2.88 2.88 0 00-1.09.77 3.45 3.45 0 00-.64 1.18A4.62 4.62 0 0020 86.93v6.65H18V81.8zM39 92.83a5.34 5.34 0 01-3.33 1 6.12 6.12 0 01-2.45-.46 4.75 4.75 0 01-1.74-1.28 5.3 5.3 0 01-1.06-2 9.26 9.26 0 01-.4-2.48 6.9 6.9 0 01.41-2.46 5.87 5.87 0 011.15-1.94A5.22 5.22 0 0133.37 82a5.37 5.37 0 012.22-.45 4.77 4.77 0 012.61.65 5.13 5.13 0 011.66 1.65A6.53 6.53 0 0140.73 86a9.33 9.33 0 01.19 2.25H32.1a4.71 4.71 0 00.18 1.47A3.32 3.32 0 0032.94 91a3.21 3.21 0 001.17.86 4 4 0 001.66.32 3.37 3.37 0 002-.57 2.74 2.74 0 001-1.73h1.92A4.72 4.72 0 0139 92.83zm-.47-7.57a3.38 3.38 0 00-.7-1.06 3.45 3.45 0 00-1-.7 3.49 3.49 0 00-2.69 0 2.94 2.94 0 00-1 .72 3.22 3.22 0 00-.68 1 4 4 0 00-.3 1.29h6.77A3.87 3.87 0 0038.56 85.26zM50 83.85a2.93 2.93 0 00-2-.62 3.57 3.57 0 00-1.75.39 3.12 3.12 0 00-1.13 1 4.23 4.23 0 00-.61 1.47 8.09 8.09 0 00-.18 1.72 6.55 6.55 0 00.2 1.6 4.14 4.14 0 00.6 1.37 2.94 2.94 0 001.07 1 3.14 3.14 0 001.57.37A3.19 3.19 0 0050 91.4a3.41 3.41 0 001-2.12h2a5.37 5.37 0 01-1.63 3.37 5.1 5.1 0 01-3.56 1.19 6.17 6.17 0 01-2.39-.44 4.71 4.71 0 01-1.73-1.23 5.39 5.39 0 01-1-1.9 8.15 8.15 0 01-.35-2.43 8.52 8.52 0 01.34-2.47 5.82 5.82 0 011-2A4.86 4.86 0 0145.41 82a5.81 5.81 0 012.44-.48 7.07 7.07 0 011.88.23 4.47 4.47 0 011.55.75 4 4 0 011.11 1.26 4.69 4.69 0 01.55 1.81h-2A2.93 2.93 0 0050 83.85zM63.51 92.83a5.33 5.33 0 01-3.32 1 6.08 6.08 0 01-2.45-.46A4.7 4.7 0 0156 92.1a5.45 5.45 0 01-1.06-2 9.68 9.68 0 01-.4-2.48 7.13 7.13 0 01.41-2.46 6 6 0 011.15-1.94A5.32 5.32 0 0157.85 82a5.4 5.4 0 012.22-.45 4.77 4.77 0 012.61.65 5.16 5.16 0 011.67 1.65A6.72 6.72 0 0165.21 86a9.36 9.36 0 01.2 2.25H56.58a4.71 4.71 0 00.19 1.47A3.06 3.06 0 0057.43 91a3.17 3.17 0 001.16.86 4.06 4.06 0 001.66.32 3.33 3.33 0 002-.57 2.75 2.75 0 001-1.73h1.91A4.63 4.63 0 0163.51 92.83zm-.46-7.57a3.4 3.4 0 00-.71-1.06 3.45 3.45 0 00-1.05-.7A3.23 3.23 0 0060 83.23a3.3 3.3 0 00-1.36.27 3 3 0 00-1 .72 3.39 3.39 0 00-.68 1 4 4 0 00-.3 1.29h6.77A4.11 4.11 0 0063.05 85.26zM68.89 91a2.22 2.22 0 00.72.71 3.47 3.47 0 001 .38 6.15 6.15 0 001.15.11 6.35 6.35 0 001-.07 3.34 3.34 0 00.93-.25 1.67 1.67 0 00.69-.54 1.42 1.42 0 00.28-.9 1.29 1.29 0 00-.57-1.14 4.85 4.85 0 00-1.43-.62c-.57-.16-1.19-.31-1.86-.44a10 10 0 01-1.85-.54 3.88 3.88 0 01-1.43-1 2.55 2.55 0 01-.57-1.77 2.77 2.77 0 01.4-1.53 3.3 3.3 0 011-1 4.71 4.71 0 011.41-.59 6.4 6.4 0 011.56-.19 9 9 0 011.85.17 4.19 4.19 0 011.49.59 3.1 3.1 0 011 1.14 4.21 4.21 0 01.45 1.79H74.21a1.85 1.85 0 00-.94-1.55 3 3 0 00-.85-.33 4.4 4.4 0 00-1-.11 6.65 6.65 0 00-.88.07 3.46 3.46 0 00-.81.24 1.71 1.71 0 00-.59.46 1.17 1.17 0 00-.23.74 1.08 1.08 0 00.36.83 2.81 2.81 0 00.9.55 8.23 8.23 0 001.23.36l1.37.31c.48.11 1 .24 1.42.39a4.69 4.69 0 011.23.6 2.93 2.93 0 01.87 1 2.78 2.78 0 01.33 1.41 3.24 3.24 0 01-.45 1.78 3.42 3.42 0 01-1.16 1.14 5 5 0 01-1.62.61 9.86 9.86 0 01-1.79.17 8.18 8.18 0 01-1.87-.21A4.72 4.72 0 0168.21 93a3.33 3.33 0 01-1.09-1.23 4.18 4.18 0 01-.46-1.86H68.6A2.14 2.14 0 0068.89 91zM78.92 79.68V77.31h1.94v2.37zm1.94 2.12V93.58H78.92V81.8zM88.91 81.8v1.71H86.56v7.32a2 2 0 00.06.54.53.53 0 00.22.32.85.85 0 00.44.15 7.39 7.39 0 00.74 0h.89v1.71H87.43a6.9 6.9 0 01-1.29-.1 1.93 1.93 0 01-.87-.37 1.66 1.66 0 01-.49-.78A4.65 4.65 0 0184.62 91v-7.5h-2V81.8h2V78.27h1.94V81.8zM101.49 93.54a2.68 2.68 0 01-1.39.3 1.61 1.61 0 01-1.19-.43A1.81 1.81 0 0198.46 92a4.65 4.65 0 01-1.86 1.37 6 6 0 01-2.29.43 6.12 6.12 0 01-1.51-.19 3.5 3.5 0 01-1.25-.57 2.75 2.75 0 01-.83-1 3.49 3.49 0 01-.31-1.52 3.44 3.44 0 01.35-1.64 2.92 2.92 0 01.9-1 4.26 4.26 0 011.27-.6 14.27 14.27 0 011.47-.34 15.33 15.33 0 011.52-.24 7.71 7.71 0 001.26-.23 2.09 2.09 0 00.87-.43 1.07 1.07 0 00.32-.83 1.94 1.94 0 00-.24-1 1.57 1.57 0 00-.61-.59 2.66 2.66 0 00-.85-.28 7.26 7.26 0 00-.92-.07 4.09 4.09 0 00-2 .47 2 2 0 00-.89 1.77H90.87a4.1 4.1 0 01.46-1.85 3.38 3.38 0 011.09-1.22A4.76 4.76 0 0194 81.73a8.09 8.09 0 011.88-.2 10.62 10.62 0 011.59.11 3.9 3.9 0 011.42.47 2.69 2.69 0 011 1 3.16 3.16 0 01.39 1.66v6.06a4.13 4.13 0 00.08 1c0 .21.23.32.53.32a2.29 2.29 0 00.59-.09zm-3.14-6a2.57 2.57 0 01-1 .4c-.4.08-.81.15-1.24.2s-.87.11-1.31.18a5 5 0 00-1.19.33 2.13 2.13 0 00-.85.65 1.8 1.8 0 00-.33 1.14 1.57 1.57 0 00.19.81 1.69 1.69 0 00.5.53 2.33 2.33 0 00.72.3 4 4 0 00.87.09 4.74 4.74 0 001.64-.26 3.71 3.71 0 001.11-.66 2.48 2.48 0 00.64-.87 2.09 2.09 0 00.21-.87zM104.78 91a2.1 2.1 0 00.71.71 3.58 3.58 0 001 .38 6.15 6.15 0 001.15.11 6.58 6.58 0 001-.07 3.37 3.37 0 00.92-.25 1.77 1.77 0 00.7-.54 1.42 1.42 0 00.27-.9 1.29 1.29 0 00-.57-1.14 4.85 4.85 0 00-1.43-.62c-.57-.16-1.19-.31-1.85-.44a10.11 10.11 0 01-1.86-.54 3.88 3.88 0 01-1.43-1 2.55 2.55 0 01-.57-1.77 2.85 2.85 0 01.4-1.53 3.3 3.3 0 011-1 4.94 4.94 0 011.41-.59 6.52 6.52 0 011.56-.19 8.89 8.89 0 011.85.17 4.19 4.19 0 011.49.59 3 3 0 011 1.14 4.35 4.35 0 01.46 1.79h-1.94a1.85 1.85 0 00-.94-1.55 2.89 2.89 0 00-.85-.33 4.33 4.33 0 00-1-.11 6.65 6.65 0 00-.88.07 3.25 3.25 0 00-.8.24 1.66 1.66 0 00-.6.46 1.17 1.17 0 00-.23.74 1.08 1.08 0 00.36.83 2.81 2.81 0 00.9.55 8.23 8.23 0 001.23.36l1.37.31c.48.11 1 .24 1.42.39a4.4 4.4 0 011.23.6 2.93 2.93 0 01.87 1 2.78 2.78 0 01.33 1.41 3.33 3.33 0 01-.44 1.78 3.54 3.54 0 01-1.17 1.14 4.91 4.91 0 01-1.62.61 9.84 9.84 0 01-1.78.17 8.06 8.06 0 01-1.87-.21 4.69 4.69 0 01-1.58-.67A3.42 3.42 0 01103 91.73a4.32 4.32 0 01-.46-1.86h1.94A2 2 0 00104.78 91zM117.66 91.05v2.53h-2.53V91.05z" class="color004990 svgShape"></path></svg></g></svg>