<?xml version="1.0" encoding="UTF-8" standalone="no"?>
<!DOCTYPE svg PUBLIC "-//W3C//DTD SVG 1.1//EN"
 "http://www.w3.org/Graphics/SVG/1.1/DTD/svg11.dtd">
<!-- Generated by graphviz version 2.47.3 (20210619.1520)
 -->
<!-- Title: dependencies Pages: 1 -->
<svg width="406pt" height="174pt"
 viewBox="0.00 0.00 406.00 173.80" xmlns="http://www.w3.org/2000/svg" xmlns:xlink="http://www.w3.org/1999/xlink">
<g id="graph0" class="graph" transform="scale(1 1) rotate(0) translate(4 169.8)">
<title>dependencies</title>
<polygon fill="white" stroke="transparent" points="-4,4 -4,-169.8 402,-169.8 402,4 -4,4"/>
<text text-anchor="middle" x="199" y="-8.2" font-family="sans-serif" font-size="14.00">dependencies</text>
<g id="clust1" class="cluster">
<title>cluster_CareersPageModule</title>
<polygon fill="none" stroke="black" stroke-dasharray="1,5" points="8,-32.8 8,-157.8 390,-157.8 390,-32.8 8,-32.8"/>
</g>
<g id="clust4" class="cluster">
<title>cluster_CareersPageModule_imports</title>
<polygon fill="none" stroke="black" points="192,-40.8 192,-92.8 382,-92.8 382,-40.8 192,-40.8"/>
</g>
<g id="clust2" class="cluster">
<title>cluster_CareersPageModule_declarations</title>
<polygon fill="none" stroke="black" points="16,-40.8 16,-92.8 184,-92.8 184,-40.8 16,-40.8"/>
</g>
<!-- CareersPageComponent -->
<g id="node1" class="node">
<title>CareersPageComponent</title>
<polygon fill="#ffffb3" stroke="black" points="175.79,-84.8 24.21,-84.8 24.21,-48.8 175.79,-48.8 175.79,-84.8"/>
<text text-anchor="middle" x="100" y="-62.6" font-family="Times,serif" font-size="14.00">CareersPageComponent</text>
</g>
<!-- CareersPageModule -->
<g id="node2" class="node">
<title>CareersPageModule</title>
<polygon fill="#8dd3c7" stroke="black" points="257.51,-149.8 254.51,-153.8 233.51,-153.8 230.51,-149.8 128.49,-149.8 128.49,-113.8 257.51,-113.8 257.51,-149.8"/>
<text text-anchor="middle" x="193" y="-127.6" font-family="Times,serif" font-size="14.00">CareersPageModule</text>
</g>
<!-- CareersPageComponent&#45;&gt;CareersPageModule -->
<g id="edge1" class="edge">
<title>CareersPageComponent&#45;&gt;CareersPageModule</title>
<path fill="none" stroke="black" d="M151.95,-84.91C151.95,-84.91 151.95,-103.79 151.95,-103.79"/>
<polygon fill="black" stroke="black" points="148.45,-103.79 151.95,-113.79 155.45,-103.79 148.45,-103.79"/>
</g>
<!-- CareersPageRoutingModule -->
<g id="node3" class="node">
<title>CareersPageRoutingModule</title>
<polygon fill="#8dd3c7" stroke="black" points="374.13,-84.8 371.13,-88.8 350.13,-88.8 347.13,-84.8 199.87,-84.8 199.87,-48.8 374.13,-48.8 374.13,-84.8"/>
<text text-anchor="middle" x="287" y="-62.6" font-family="Times,serif" font-size="14.00">CareersPageRoutingModule</text>
</g>
<!-- CareersPageRoutingModule&#45;&gt;CareersPageModule -->
<g id="edge2" class="edge">
<title>CareersPageRoutingModule&#45;&gt;CareersPageModule</title>
<path fill="none" stroke="black" d="M228.72,-84.91C228.72,-84.91 228.72,-103.79 228.72,-103.79"/>
<polygon fill="black" stroke="black" points="225.22,-103.79 228.72,-113.79 232.22,-103.79 225.22,-103.79"/>
</g>
</g>
</svg>
