<?xml version="1.0" encoding="UTF-8" standalone="no"?>
<!DOCTYPE svg PUBLIC "-//W3C//DTD SVG 1.1//EN"
 "http://www.w3.org/Graphics/SVG/1.1/DTD/svg11.dtd">
<!-- Generated by graphviz version 2.47.3 (20210619.1520)
 -->
<!-- Title: dependencies Pages: 1 -->
<svg width="496pt" height="174pt"
 viewBox="0.00 0.00 496.00 173.80" xmlns="http://www.w3.org/2000/svg" xmlns:xlink="http://www.w3.org/1999/xlink">
<g id="graph0" class="graph" transform="scale(1 1) rotate(0) translate(4 169.8)">
<title>dependencies</title>
<polygon fill="white" stroke="transparent" points="-4,4 -4,-169.8 492,-169.8 492,4 -4,4"/>
<text text-anchor="middle" x="244" y="-8.2" font-family="sans-serif" font-size="14.00">dependencies</text>
<g id="clust1" class="cluster">
<title>cluster_ActiveRequestsPageModule</title>
<polygon fill="none" stroke="black" stroke-dasharray="1,5" points="8,-32.8 8,-157.8 480,-157.8 480,-32.8 8,-32.8"/>
</g>
<g id="clust2" class="cluster">
<title>cluster_ActiveRequestsPageModule_declarations</title>
<polygon fill="none" stroke="black" points="260,-40.8 260,-92.8 472,-92.8 472,-40.8 260,-40.8"/>
</g>
<g id="clust4" class="cluster">
<title>cluster_ActiveRequestsPageModule_imports</title>
<polygon fill="none" stroke="black" points="16,-40.8 16,-92.8 252,-92.8 252,-40.8 16,-40.8"/>
</g>
<!-- ActiveRequestsPageComponent -->
<g id="node1" class="node">
<title>ActiveRequestsPageComponent</title>
<polygon fill="#ffffb3" stroke="black" points="464.41,-84.8 267.59,-84.8 267.59,-48.8 464.41,-48.8 464.41,-84.8"/>
<text text-anchor="middle" x="366" y="-62.6" font-family="Times,serif" font-size="14.00">ActiveRequestsPageComponent</text>
</g>
<!-- ActiveRequestsPageModule -->
<g id="node2" class="node">
<title>ActiveRequestsPageModule</title>
<polygon fill="#8dd3c7" stroke="black" points="337.12,-149.8 334.12,-153.8 313.12,-153.8 310.12,-149.8 162.88,-149.8 162.88,-113.8 337.12,-113.8 337.12,-149.8"/>
<text text-anchor="middle" x="250" y="-127.6" font-family="Times,serif" font-size="14.00">ActiveRequestsPageModule</text>
</g>
<!-- ActiveRequestsPageComponent&#45;&gt;ActiveRequestsPageModule -->
<g id="edge1" class="edge">
<title>ActiveRequestsPageComponent&#45;&gt;ActiveRequestsPageModule</title>
<path fill="none" stroke="black" d="M302.55,-84.91C302.55,-84.91 302.55,-103.79 302.55,-103.79"/>
<polygon fill="black" stroke="black" points="299.05,-103.79 302.55,-113.79 306.05,-103.79 299.05,-103.79"/>
</g>
<!-- ActiveRequestsPageRoutingModule -->
<g id="node3" class="node">
<title>ActiveRequestsPageRoutingModule</title>
<polygon fill="#8dd3c7" stroke="black" points="243.74,-84.8 240.74,-88.8 219.74,-88.8 216.74,-84.8 24.26,-84.8 24.26,-48.8 243.74,-48.8 243.74,-84.8"/>
<text text-anchor="middle" x="134" y="-62.6" font-family="Times,serif" font-size="14.00">ActiveRequestsPageRoutingModule</text>
</g>
<!-- ActiveRequestsPageRoutingModule&#45;&gt;ActiveRequestsPageModule -->
<g id="edge2" class="edge">
<title>ActiveRequestsPageRoutingModule&#45;&gt;ActiveRequestsPageModule</title>
<path fill="none" stroke="black" d="M203.28,-84.91C203.28,-84.91 203.28,-103.79 203.28,-103.79"/>
<polygon fill="black" stroke="black" points="199.78,-103.79 203.28,-113.79 206.78,-103.79 199.78,-103.79"/>
</g>
</g>
</svg>
