<?xml version="1.0" encoding="UTF-8" standalone="no"?>
<!DOCTYPE svg PUBLIC "-//W3C//DTD SVG 1.1//EN"
 "http://www.w3.org/Graphics/SVG/1.1/DTD/svg11.dtd">
<!-- Generated by graphviz version 2.47.3 (20210619.1520)
 -->
<!-- Title: dependencies Pages: 1 -->
<svg width="464pt" height="174pt"
 viewBox="0.00 0.00 464.00 173.80" xmlns="http://www.w3.org/2000/svg" xmlns:xlink="http://www.w3.org/1999/xlink">
<g id="graph0" class="graph" transform="scale(1 1) rotate(0) translate(4 169.8)">
<title>dependencies</title>
<polygon fill="white" stroke="transparent" points="-4,4 -4,-169.8 460,-169.8 460,4 -4,4"/>
<text text-anchor="middle" x="228" y="-8.2" font-family="sans-serif" font-size="14.00">dependencies</text>
<g id="clust1" class="cluster">
<title>cluster_NewRequestPageModule</title>
<polygon fill="none" stroke="black" stroke-dasharray="1,5" points="8,-32.8 8,-157.8 448,-157.8 448,-32.8 8,-32.8"/>
</g>
<g id="clust4" class="cluster">
<title>cluster_NewRequestPageModule_imports</title>
<polygon fill="none" stroke="black" points="220,-40.8 220,-92.8 440,-92.8 440,-40.8 220,-40.8"/>
</g>
<g id="clust2" class="cluster">
<title>cluster_NewRequestPageModule_declarations</title>
<polygon fill="none" stroke="black" points="16,-40.8 16,-92.8 212,-92.8 212,-40.8 16,-40.8"/>
</g>
<!-- NewRequestPageComponent -->
<g id="node1" class="node">
<title>NewRequestPageComponent</title>
<polygon fill="#ffffb3" stroke="black" points="204.07,-84.8 23.93,-84.8 23.93,-48.8 204.07,-48.8 204.07,-84.8"/>
<text text-anchor="middle" x="114" y="-62.6" font-family="Times,serif" font-size="14.00">NewRequestPageComponent</text>
</g>
<!-- NewRequestPageModule -->
<g id="node2" class="node">
<title>NewRequestPageModule</title>
<polygon fill="#8dd3c7" stroke="black" points="301.29,-149.8 298.29,-153.8 277.29,-153.8 274.29,-149.8 142.71,-149.8 142.71,-113.8 301.29,-113.8 301.29,-149.8"/>
<text text-anchor="middle" x="222" y="-127.6" font-family="Times,serif" font-size="14.00">NewRequestPageModule</text>
</g>
<!-- NewRequestPageComponent&#45;&gt;NewRequestPageModule -->
<g id="edge1" class="edge">
<title>NewRequestPageComponent&#45;&gt;NewRequestPageModule</title>
<path fill="none" stroke="black" d="M173.45,-84.91C173.45,-84.91 173.45,-103.79 173.45,-103.79"/>
<polygon fill="black" stroke="black" points="169.95,-103.79 173.45,-113.79 176.95,-103.79 169.95,-103.79"/>
</g>
<!-- NewRequestPageRoutingModule -->
<g id="node3" class="node">
<title>NewRequestPageRoutingModule</title>
<polygon fill="#8dd3c7" stroke="black" points="431.91,-84.8 428.91,-88.8 407.91,-88.8 404.91,-84.8 228.09,-84.8 228.09,-48.8 431.91,-48.8 431.91,-84.8"/>
<text text-anchor="middle" x="330" y="-62.6" font-family="Times,serif" font-size="14.00">NewRequestPageRoutingModule</text>
</g>
<!-- NewRequestPageRoutingModule&#45;&gt;NewRequestPageModule -->
<g id="edge2" class="edge">
<title>NewRequestPageRoutingModule&#45;&gt;NewRequestPageModule</title>
<path fill="none" stroke="black" d="M264.72,-84.91C264.72,-84.91 264.72,-103.79 264.72,-103.79"/>
<polygon fill="black" stroke="black" points="261.22,-103.79 264.72,-113.79 268.22,-103.79 261.22,-103.79"/>
</g>
</g>
</svg>
