<?xml version="1.0" encoding="UTF-8" standalone="no"?>
<!DOCTYPE svg PUBLIC "-//W3C//DTD SVG 1.1//EN"
 "http://www.w3.org/Graphics/SVG/1.1/DTD/svg11.dtd">
<!-- Generated by graphviz version 2.47.3 (20210619.1520)
 -->
<!-- Title: dependencies Pages: 1 -->
<svg width="400pt" height="174pt"
 viewBox="0.00 0.00 400.00 173.80" xmlns="http://www.w3.org/2000/svg" xmlns:xlink="http://www.w3.org/1999/xlink">
<g id="graph0" class="graph" transform="scale(1 1) rotate(0) translate(4 169.8)">
<title>dependencies</title>
<polygon fill="white" stroke="transparent" points="-4,4 -4,-169.8 396,-169.8 396,4 -4,4"/>
<text text-anchor="middle" x="196" y="-8.2" font-family="sans-serif" font-size="14.00">dependencies</text>
<g id="clust1" class="cluster">
<title>cluster_DeniedPageModule</title>
<polygon fill="none" stroke="black" stroke-dasharray="1,5" points="8,-32.8 8,-157.8 384,-157.8 384,-32.8 8,-32.8"/>
</g>
<g id="clust4" class="cluster">
<title>cluster_DeniedPageModule_imports</title>
<polygon fill="none" stroke="black" points="188,-40.8 188,-92.8 376,-92.8 376,-40.8 188,-40.8"/>
</g>
<g id="clust2" class="cluster">
<title>cluster_DeniedPageModule_declarations</title>
<polygon fill="none" stroke="black" points="16,-40.8 16,-92.8 180,-92.8 180,-40.8 16,-40.8"/>
</g>
<!-- DeniedPageComponent -->
<g id="node1" class="node">
<title>DeniedPageComponent</title>
<polygon fill="#ffffb3" stroke="black" points="172.47,-84.8 23.53,-84.8 23.53,-48.8 172.47,-48.8 172.47,-84.8"/>
<text text-anchor="middle" x="98" y="-62.6" font-family="Times,serif" font-size="14.00">DeniedPageComponent</text>
</g>
<!-- DeniedPageModule -->
<g id="node2" class="node">
<title>DeniedPageModule</title>
<polygon fill="#8dd3c7" stroke="black" points="253.69,-149.8 250.69,-153.8 229.69,-153.8 226.69,-149.8 126.31,-149.8 126.31,-113.8 253.69,-113.8 253.69,-149.8"/>
<text text-anchor="middle" x="190" y="-127.6" font-family="Times,serif" font-size="14.00">DeniedPageModule</text>
</g>
<!-- DeniedPageComponent&#45;&gt;DeniedPageModule -->
<g id="edge1" class="edge">
<title>DeniedPageComponent&#45;&gt;DeniedPageModule</title>
<path fill="none" stroke="black" d="M149.45,-84.91C149.45,-84.91 149.45,-103.79 149.45,-103.79"/>
<polygon fill="black" stroke="black" points="145.95,-103.79 149.45,-113.79 152.95,-103.79 145.95,-103.79"/>
</g>
<!-- DeniedPageRoutingModule -->
<g id="node3" class="node">
<title>DeniedPageRoutingModule</title>
<polygon fill="#8dd3c7" stroke="black" points="368.31,-84.8 365.31,-88.8 344.31,-88.8 341.31,-84.8 195.69,-84.8 195.69,-48.8 368.31,-48.8 368.31,-84.8"/>
<text text-anchor="middle" x="282" y="-62.6" font-family="Times,serif" font-size="14.00">DeniedPageRoutingModule</text>
</g>
<!-- DeniedPageRoutingModule&#45;&gt;DeniedPageModule -->
<g id="edge2" class="edge">
<title>DeniedPageRoutingModule&#45;&gt;DeniedPageModule</title>
<path fill="none" stroke="black" d="M224.72,-84.91C224.72,-84.91 224.72,-103.79 224.72,-103.79"/>
<polygon fill="black" stroke="black" points="221.22,-103.79 224.72,-113.79 228.22,-103.79 221.22,-103.79"/>
</g>
</g>
</svg>
