<?xml version="1.0" encoding="UTF-8" standalone="no"?>
<!DOCTYPE svg PUBLIC "-//W3C//DTD SVG 1.1//EN"
 "http://www.w3.org/Graphics/SVG/1.1/DTD/svg11.dtd">
<!-- Generated by graphviz version 2.47.3 (20210619.1520)
 -->
<!-- Title: dependencies Pages: 1 -->
<svg width="1010pt" height="174pt"
 viewBox="0.00 0.00 1010.00 173.80" xmlns="http://www.w3.org/2000/svg" xmlns:xlink="http://www.w3.org/1999/xlink">
<g id="graph0" class="graph" transform="scale(1 1) rotate(0) translate(4 169.8)">
<title>dependencies</title>
<polygon fill="white" stroke="transparent" points="-4,4 -4,-169.8 1006,-169.8 1006,4 -4,4"/>
<text text-anchor="middle" x="501" y="-8.2" font-family="sans-serif" font-size="14.00">dependencies</text>
<g id="clust1" class="cluster">
<title>cluster_LoginPageModule</title>
<polygon fill="none" stroke="black" stroke-dasharray="1,5" points="8,-32.8 8,-157.8 994,-157.8 994,-32.8 8,-32.8"/>
</g>
<g id="clust10" class="cluster">
<title>cluster_LoginPageModule_providers</title>
<polygon fill="none" stroke="black" points="852,-40.8 852,-92.8 986,-92.8 986,-40.8 852,-40.8"/>
</g>
<g id="clust2" class="cluster">
<title>cluster_LoginPageModule_declarations</title>
<polygon fill="none" stroke="black" points="206,-40.8 206,-92.8 844,-92.8 844,-40.8 206,-40.8"/>
</g>
<g id="clust7" class="cluster">
<title>cluster_LoginPageModule_imports</title>
<polygon fill="none" stroke="black" points="16,-40.8 16,-92.8 198,-92.8 198,-40.8 16,-40.8"/>
</g>
<!-- AuthComponent -->
<g id="node1" class="node">
<title>AuthComponent</title>
<polygon fill="#ffffb3" stroke="black" points="835.83,-84.8 726.17,-84.8 726.17,-48.8 835.83,-48.8 835.83,-84.8"/>
<text text-anchor="middle" x="781" y="-62.6" font-family="Times,serif" font-size="14.00">AuthComponent</text>
</g>
<!-- LoginPageModule -->
<g id="node5" class="node">
<title>LoginPageModule</title>
<polygon fill="#8dd3c7" stroke="black" points="605.2,-149.8 602.2,-153.8 581.2,-153.8 578.2,-149.8 484.8,-149.8 484.8,-113.8 605.2,-113.8 605.2,-149.8"/>
<text text-anchor="middle" x="545" y="-127.6" font-family="Times,serif" font-size="14.00">LoginPageModule</text>
</g>
<!-- AuthComponent&#45;&gt;LoginPageModule -->
<g id="edge1" class="edge">
<title>AuthComponent&#45;&gt;LoginPageModule</title>
<path fill="none" stroke="black" d="M781,-84.82C781,-102.17 781,-125.8 781,-125.8 781,-125.8 615.16,-125.8 615.16,-125.8"/>
<polygon fill="black" stroke="black" points="615.16,-122.3 605.16,-125.8 615.16,-129.3 615.16,-122.3"/>
</g>
<!-- LoginPageComponent -->
<g id="node2" class="node">
<title>LoginPageComponent</title>
<polygon fill="#ffffb3" stroke="black" points="707.99,-84.8 566.01,-84.8 566.01,-48.8 707.99,-48.8 707.99,-84.8"/>
<text text-anchor="middle" x="637" y="-62.6" font-family="Times,serif" font-size="14.00">LoginPageComponent</text>
</g>
<!-- LoginPageComponent&#45;&gt;LoginPageModule -->
<g id="edge2" class="edge">
<title>LoginPageComponent&#45;&gt;LoginPageModule</title>
<path fill="none" stroke="black" d="M585.55,-84.91C585.55,-84.91 585.55,-103.79 585.55,-103.79"/>
<polygon fill="black" stroke="black" points="582.05,-103.79 585.55,-113.79 589.05,-103.79 582.05,-103.79"/>
</g>
<!-- PasswordRecoveryComponent -->
<g id="node3" class="node">
<title>PasswordRecoveryComponent</title>
<polygon fill="#ffffb3" stroke="black" points="548.13,-84.8 359.87,-84.8 359.87,-48.8 548.13,-48.8 548.13,-84.8"/>
<text text-anchor="middle" x="454" y="-62.6" font-family="Times,serif" font-size="14.00">PasswordRecoveryComponent</text>
</g>
<!-- PasswordRecoveryComponent&#45;&gt;LoginPageModule -->
<g id="edge3" class="edge">
<title>PasswordRecoveryComponent&#45;&gt;LoginPageModule</title>
<path fill="none" stroke="black" d="M516.61,-84.91C516.61,-84.91 516.61,-103.79 516.61,-103.79"/>
<polygon fill="black" stroke="black" points="513.11,-103.79 516.61,-113.79 520.11,-103.79 513.11,-103.79"/>
</g>
<!-- RegisterComponent -->
<g id="node4" class="node">
<title>RegisterComponent</title>
<polygon fill="#ffffb3" stroke="black" points="341.98,-84.8 214.02,-84.8 214.02,-48.8 341.98,-48.8 341.98,-84.8"/>
<text text-anchor="middle" x="278" y="-62.6" font-family="Times,serif" font-size="14.00">RegisterComponent</text>
</g>
<!-- RegisterComponent&#45;&gt;LoginPageModule -->
<g id="edge4" class="edge">
<title>RegisterComponent&#45;&gt;LoginPageModule</title>
<path fill="none" stroke="black" d="M278,-84.82C278,-102.17 278,-125.8 278,-125.8 278,-125.8 474.75,-125.8 474.75,-125.8"/>
<polygon fill="black" stroke="black" points="474.75,-129.3 484.75,-125.8 474.75,-122.3 474.75,-129.3"/>
</g>
<!-- LoginPageRoutingModule -->
<g id="node6" class="node">
<title>LoginPageRoutingModule</title>
<polygon fill="#8dd3c7" stroke="black" points="189.82,-84.8 186.82,-88.8 165.82,-88.8 162.82,-84.8 24.18,-84.8 24.18,-48.8 189.82,-48.8 189.82,-84.8"/>
<text text-anchor="middle" x="107" y="-62.6" font-family="Times,serif" font-size="14.00">LoginPageRoutingModule</text>
</g>
<!-- LoginPageRoutingModule&#45;&gt;LoginPageModule -->
<g id="edge5" class="edge">
<title>LoginPageRoutingModule&#45;&gt;LoginPageModule</title>
<path fill="none" stroke="black" d="M107,-85.08C107,-106.12 107,-137.8 107,-137.8 107,-137.8 474.56,-137.8 474.56,-137.8"/>
<polygon fill="black" stroke="black" points="474.56,-141.3 484.56,-137.8 474.56,-134.3 474.56,-141.3"/>
</g>
<!-- AuthService -->
<g id="node7" class="node">
<title>AuthService</title>
<ellipse fill="#fdb462" stroke="black" cx="919" cy="-66.8" rx="59.11" ry="18"/>
<text text-anchor="middle" x="919" y="-62.6" font-family="Times,serif" font-size="14.00">AuthService</text>
</g>
<!-- AuthService&#45;&gt;LoginPageModule -->
<g id="edge6" class="edge">
<title>AuthService&#45;&gt;LoginPageModule</title>
<path fill="none" stroke="black" d="M919,-85.08C919,-106.12 919,-137.8 919,-137.8 919,-137.8 615.51,-137.8 615.51,-137.8"/>
<polygon fill="black" stroke="black" points="615.51,-134.3 605.51,-137.8 615.51,-141.3 615.51,-134.3"/>
</g>
</g>
</svg>
