<?xml version="1.0" encoding="UTF-8" standalone="no"?>
<!DOCTYPE svg PUBLIC "-//W3C//DTD SVG 1.1//EN"
 "http://www.w3.org/Graphics/SVG/1.1/DTD/svg11.dtd">
<!-- Generated by graphviz version 2.47.3 (20210619.1520)
 -->
<!-- Title: dependencies Pages: 1 -->
<svg width="627pt" height="174pt"
 viewBox="0.00 0.00 627.00 173.80" xmlns="http://www.w3.org/2000/svg" xmlns:xlink="http://www.w3.org/1999/xlink">
<g id="graph0" class="graph" transform="scale(1 1) rotate(0) translate(4 169.8)">
<title>dependencies</title>
<polygon fill="white" stroke="transparent" points="-4,4 -4,-169.8 623,-169.8 623,4 -4,4"/>
<text text-anchor="middle" x="309.5" y="-8.2" font-family="sans-serif" font-size="14.00">dependencies</text>
<g id="clust1" class="cluster">
<title>cluster_LayoutModule</title>
<polygon fill="none" stroke="black" stroke-dasharray="1,5" points="8,-32.8 8,-157.8 611,-157.8 611,-32.8 8,-32.8"/>
</g>
<g id="clust2" class="cluster">
<title>cluster_LayoutModule_declarations</title>
<polygon fill="none" stroke="black" points="184,-40.8 184,-92.8 603,-92.8 603,-40.8 184,-40.8"/>
</g>
<g id="clust6" class="cluster">
<title>cluster_LayoutModule_imports</title>
<polygon fill="none" stroke="black" points="16,-40.8 16,-92.8 176,-92.8 176,-40.8 16,-40.8"/>
</g>
<!-- LayoutComponent -->
<g id="node1" class="node">
<title>LayoutComponent</title>
<polygon fill="#ffffb3" stroke="black" points="595.49,-84.8 474.51,-84.8 474.51,-48.8 595.49,-48.8 595.49,-84.8"/>
<text text-anchor="middle" x="535" y="-62.6" font-family="Times,serif" font-size="14.00">LayoutComponent</text>
</g>
<!-- LayoutModule -->
<g id="node4" class="node">
<title>LayoutModule</title>
<polygon fill="#8dd3c7" stroke="black" points="373.71,-149.8 370.71,-153.8 349.71,-153.8 346.71,-149.8 274.29,-149.8 274.29,-113.8 373.71,-113.8 373.71,-149.8"/>
<text text-anchor="middle" x="324" y="-127.6" font-family="Times,serif" font-size="14.00">LayoutModule</text>
</g>
<!-- LayoutComponent&#45;&gt;LayoutModule -->
<g id="edge1" class="edge">
<title>LayoutComponent&#45;&gt;LayoutModule</title>
<path fill="none" stroke="black" d="M535,-84.91C535,-104.14 535,-131.8 535,-131.8 535,-131.8 383.74,-131.8 383.74,-131.8"/>
<polygon fill="black" stroke="black" points="383.74,-128.3 373.74,-131.8 383.74,-135.3 383.74,-128.3"/>
</g>
<!-- NavbarComponent -->
<g id="node2" class="node">
<title>NavbarComponent</title>
<polygon fill="#ffffb3" stroke="black" points="456.03,-84.8 333.97,-84.8 333.97,-48.8 456.03,-48.8 456.03,-84.8"/>
<text text-anchor="middle" x="395" y="-62.6" font-family="Times,serif" font-size="14.00">NavbarComponent</text>
</g>
<!-- NavbarComponent&#45;&gt;LayoutModule -->
<g id="edge2" class="edge">
<title>NavbarComponent&#45;&gt;LayoutModule</title>
<path fill="none" stroke="black" d="M353.67,-84.91C353.67,-84.91 353.67,-103.79 353.67,-103.79"/>
<polygon fill="black" stroke="black" points="350.17,-103.79 353.67,-113.79 357.17,-103.79 350.17,-103.79"/>
</g>
<!-- SidebarComponent -->
<g id="node3" class="node">
<title>SidebarComponent</title>
<polygon fill="#ffffb3" stroke="black" points="316.1,-84.8 191.9,-84.8 191.9,-48.8 316.1,-48.8 316.1,-84.8"/>
<text text-anchor="middle" x="254" y="-62.6" font-family="Times,serif" font-size="14.00">SidebarComponent</text>
</g>
<!-- SidebarComponent&#45;&gt;LayoutModule -->
<g id="edge3" class="edge">
<title>SidebarComponent&#45;&gt;LayoutModule</title>
<path fill="none" stroke="black" d="M295.22,-84.91C295.22,-84.91 295.22,-103.79 295.22,-103.79"/>
<polygon fill="black" stroke="black" points="291.72,-103.79 295.22,-113.79 298.72,-103.79 291.72,-103.79"/>
</g>
<!-- LayoutRoutingModule -->
<g id="node5" class="node">
<title>LayoutRoutingModule</title>
<polygon fill="#8dd3c7" stroke="black" points="168.33,-84.8 165.33,-88.8 144.33,-88.8 141.33,-84.8 23.67,-84.8 23.67,-48.8 168.33,-48.8 168.33,-84.8"/>
<text text-anchor="middle" x="96" y="-62.6" font-family="Times,serif" font-size="14.00">LayoutRoutingModule</text>
</g>
<!-- LayoutRoutingModule&#45;&gt;LayoutModule -->
<g id="edge4" class="edge">
<title>LayoutRoutingModule&#45;&gt;LayoutModule</title>
<path fill="none" stroke="black" d="M96,-84.91C96,-104.14 96,-131.8 96,-131.8 96,-131.8 264.25,-131.8 264.25,-131.8"/>
<polygon fill="black" stroke="black" points="264.25,-135.3 274.25,-131.8 264.25,-128.3 264.25,-135.3"/>
</g>
</g>
</svg>
