<?xml version="1.0" encoding="UTF-8" standalone="no"?>
<!DOCTYPE svg PUBLIC "-//W3C//DTD SVG 1.1//EN"
 "http://www.w3.org/Graphics/SVG/1.1/DTD/svg11.dtd">
<!-- Generated by graphviz version 2.47.3 (20210619.1520)
 -->
<!-- Title: dependencies Pages: 1 -->
<svg width="791pt" height="174pt"
 viewBox="0.00 0.00 791.00 173.80" xmlns="http://www.w3.org/2000/svg" xmlns:xlink="http://www.w3.org/1999/xlink">
<g id="graph0" class="graph" transform="scale(1 1) rotate(0) translate(4 169.8)">
<title>dependencies</title>
<polygon fill="white" stroke="transparent" points="-4,4 -4,-169.8 787,-169.8 787,4 -4,4"/>
<text text-anchor="middle" x="391.5" y="-8.2" font-family="sans-serif" font-size="14.00">dependencies</text>
<g id="clust1" class="cluster">
<title>cluster_LayoutModule</title>
<polygon fill="none" stroke="black" stroke-dasharray="1,5" points="8,-32.8 8,-157.8 775,-157.8 775,-32.8 8,-32.8"/>
</g>
<g id="clust2" class="cluster">
<title>cluster_LayoutModule_declarations</title>
<polygon fill="none" stroke="black" points="348,-40.8 348,-92.8 767,-92.8 767,-40.8 348,-40.8"/>
</g>
<g id="clust6" class="cluster">
<title>cluster_LayoutModule_imports</title>
<polygon fill="none" stroke="black" points="180,-40.8 180,-92.8 340,-92.8 340,-40.8 180,-40.8"/>
</g>
<g id="clust9" class="cluster">
<title>cluster_LayoutModule_providers</title>
<polygon fill="none" stroke="black" points="16,-40.8 16,-92.8 172,-92.8 172,-40.8 16,-40.8"/>
</g>
<!-- LayoutComponent -->
<g id="node1" class="node">
<title>LayoutComponent</title>
<polygon fill="#ffffb3" stroke="black" points="759.49,-84.8 638.51,-84.8 638.51,-48.8 759.49,-48.8 759.49,-84.8"/>
<text text-anchor="middle" x="699" y="-62.6" font-family="Times,serif" font-size="14.00">LayoutComponent</text>
</g>
<!-- LayoutModule -->
<g id="node4" class="node">
<title>LayoutModule</title>
<polygon fill="#8dd3c7" stroke="black" points="467.71,-149.8 464.71,-153.8 443.71,-153.8 440.71,-149.8 368.29,-149.8 368.29,-113.8 467.71,-113.8 467.71,-149.8"/>
<text text-anchor="middle" x="418" y="-127.6" font-family="Times,serif" font-size="14.00">LayoutModule</text>
</g>
<!-- LayoutComponent&#45;&gt;LayoutModule -->
<g id="edge1" class="edge">
<title>LayoutComponent&#45;&gt;LayoutModule</title>
<path fill="none" stroke="black" d="M699,-85.08C699,-106.12 699,-137.8 699,-137.8 699,-137.8 477.91,-137.8 477.91,-137.8"/>
<polygon fill="black" stroke="black" points="477.91,-134.3 467.91,-137.8 477.91,-141.3 477.91,-134.3"/>
</g>
<!-- NavbarComponent -->
<g id="node2" class="node">
<title>NavbarComponent</title>
<polygon fill="#ffffb3" stroke="black" points="620.03,-84.8 497.97,-84.8 497.97,-48.8 620.03,-48.8 620.03,-84.8"/>
<text text-anchor="middle" x="559" y="-62.6" font-family="Times,serif" font-size="14.00">NavbarComponent</text>
</g>
<!-- NavbarComponent&#45;&gt;LayoutModule -->
<g id="edge2" class="edge">
<title>NavbarComponent&#45;&gt;LayoutModule</title>
<path fill="none" stroke="black" d="M559,-84.82C559,-102.17 559,-125.8 559,-125.8 559,-125.8 477.71,-125.8 477.71,-125.8"/>
<polygon fill="black" stroke="black" points="477.71,-122.3 467.71,-125.8 477.71,-129.3 477.71,-122.3"/>
</g>
<!-- SidebarComponent -->
<g id="node3" class="node">
<title>SidebarComponent</title>
<polygon fill="#ffffb3" stroke="black" points="480.1,-84.8 355.9,-84.8 355.9,-48.8 480.1,-48.8 480.1,-84.8"/>
<text text-anchor="middle" x="418" y="-62.6" font-family="Times,serif" font-size="14.00">SidebarComponent</text>
</g>
<!-- SidebarComponent&#45;&gt;LayoutModule -->
<g id="edge3" class="edge">
<title>SidebarComponent&#45;&gt;LayoutModule</title>
<path fill="none" stroke="black" d="M418,-84.91C418,-84.91 418,-103.79 418,-103.79"/>
<polygon fill="black" stroke="black" points="414.5,-103.79 418,-113.79 421.5,-103.79 414.5,-103.79"/>
</g>
<!-- LayoutRoutingModule -->
<g id="node5" class="node">
<title>LayoutRoutingModule</title>
<polygon fill="#8dd3c7" stroke="black" points="332.33,-84.8 329.33,-88.8 308.33,-88.8 305.33,-84.8 187.67,-84.8 187.67,-48.8 332.33,-48.8 332.33,-84.8"/>
<text text-anchor="middle" x="260" y="-62.6" font-family="Times,serif" font-size="14.00">LayoutRoutingModule</text>
</g>
<!-- LayoutRoutingModule&#45;&gt;LayoutModule -->
<g id="edge4" class="edge">
<title>LayoutRoutingModule&#45;&gt;LayoutModule</title>
<path fill="none" stroke="black" d="M260,-84.82C260,-102.17 260,-125.8 260,-125.8 260,-125.8 358.01,-125.8 358.01,-125.8"/>
<polygon fill="black" stroke="black" points="358.01,-129.3 368.01,-125.8 358.01,-122.3 358.01,-129.3"/>
</g>
<!-- CatalogService -->
<g id="node6" class="node">
<title>CatalogService</title>
<ellipse fill="#fdb462" stroke="black" cx="94" cy="-66.8" rx="70.06" ry="18"/>
<text text-anchor="middle" x="94" y="-62.6" font-family="Times,serif" font-size="14.00">CatalogService</text>
</g>
<!-- CatalogService&#45;&gt;LayoutModule -->
<g id="edge5" class="edge">
<title>CatalogService&#45;&gt;LayoutModule</title>
<path fill="none" stroke="black" d="M94,-85.08C94,-106.12 94,-137.8 94,-137.8 94,-137.8 358.09,-137.8 358.09,-137.8"/>
<polygon fill="black" stroke="black" points="358.09,-141.3 368.09,-137.8 358.09,-134.3 358.09,-141.3"/>
</g>
</g>
</svg>
