<?xml version="1.0" encoding="UTF-8" standalone="no"?>
<!DOCTYPE svg PUBLIC "-//W3C//DTD SVG 1.1//EN"
 "http://www.w3.org/Graphics/SVG/1.1/DTD/svg11.dtd">
<!-- Generated by graphviz version 2.47.3 (20210619.1520)
 -->
<!-- Title: dependencies Pages: 1 -->
<svg width="416pt" height="174pt"
 viewBox="0.00 0.00 416.00 173.80" xmlns="http://www.w3.org/2000/svg" xmlns:xlink="http://www.w3.org/1999/xlink">
<g id="graph0" class="graph" transform="scale(1 1) rotate(0) translate(4 169.8)">
<title>dependencies</title>
<polygon fill="white" stroke="transparent" points="-4,4 -4,-169.8 412,-169.8 412,4 -4,4"/>
<text text-anchor="middle" x="204" y="-8.2" font-family="sans-serif" font-size="14.00">dependencies</text>
<g id="clust1" class="cluster">
<title>cluster_SubjectsPageModule</title>
<polygon fill="none" stroke="black" stroke-dasharray="1,5" points="8,-32.8 8,-157.8 400,-157.8 400,-32.8 8,-32.8"/>
</g>
<g id="clust4" class="cluster">
<title>cluster_SubjectsPageModule_imports</title>
<polygon fill="none" stroke="black" points="196,-40.8 196,-92.8 392,-92.8 392,-40.8 196,-40.8"/>
</g>
<g id="clust2" class="cluster">
<title>cluster_SubjectsPageModule_declarations</title>
<polygon fill="none" stroke="black" points="16,-40.8 16,-92.8 188,-92.8 188,-40.8 16,-40.8"/>
</g>
<!-- SubjectsPageComponent -->
<g id="node1" class="node">
<title>SubjectsPageComponent</title>
<polygon fill="#ffffb3" stroke="black" points="179.98,-84.8 24.02,-84.8 24.02,-48.8 179.98,-48.8 179.98,-84.8"/>
<text text-anchor="middle" x="102" y="-62.6" font-family="Times,serif" font-size="14.00">SubjectsPageComponent</text>
</g>
<!-- SubjectsPageModule -->
<g id="node2" class="node">
<title>SubjectsPageModule</title>
<polygon fill="#8dd3c7" stroke="black" points="265.2,-149.8 262.2,-153.8 241.2,-153.8 238.2,-149.8 130.8,-149.8 130.8,-113.8 265.2,-113.8 265.2,-149.8"/>
<text text-anchor="middle" x="198" y="-127.6" font-family="Times,serif" font-size="14.00">SubjectsPageModule</text>
</g>
<!-- SubjectsPageComponent&#45;&gt;SubjectsPageModule -->
<g id="edge1" class="edge">
<title>SubjectsPageComponent&#45;&gt;SubjectsPageModule</title>
<path fill="none" stroke="black" d="M155.45,-84.91C155.45,-84.91 155.45,-103.79 155.45,-103.79"/>
<polygon fill="black" stroke="black" points="151.95,-103.79 155.45,-113.79 158.95,-103.79 151.95,-103.79"/>
</g>
<!-- SubjectsPageRoutingModule -->
<g id="node3" class="node">
<title>SubjectsPageRoutingModule</title>
<polygon fill="#8dd3c7" stroke="black" points="383.82,-84.8 380.82,-88.8 359.82,-88.8 356.82,-84.8 204.18,-84.8 204.18,-48.8 383.82,-48.8 383.82,-84.8"/>
<text text-anchor="middle" x="294" y="-62.6" font-family="Times,serif" font-size="14.00">SubjectsPageRoutingModule</text>
</g>
<!-- SubjectsPageRoutingModule&#45;&gt;SubjectsPageModule -->
<g id="edge2" class="edge">
<title>SubjectsPageRoutingModule&#45;&gt;SubjectsPageModule</title>
<path fill="none" stroke="black" d="M234.72,-84.91C234.72,-84.91 234.72,-103.79 234.72,-103.79"/>
<polygon fill="black" stroke="black" points="231.22,-103.79 234.72,-113.79 238.22,-103.79 231.22,-103.79"/>
</g>
</g>
</svg>
