<?xml version="1.0" encoding="UTF-8" standalone="no"?>
<!DOCTYPE svg PUBLIC "-//W3C//DTD SVG 1.1//EN"
 "http://www.w3.org/Graphics/SVG/1.1/DTD/svg11.dtd">
<!-- Generated by graphviz version 2.47.3 (20210619.1520)
 -->
<!-- Title: dependencies Pages: 1 -->
<svg width="460pt" height="174pt"
 viewBox="0.00 0.00 460.00 173.80" xmlns="http://www.w3.org/2000/svg" xmlns:xlink="http://www.w3.org/1999/xlink">
<g id="graph0" class="graph" transform="scale(1 1) rotate(0) translate(4 169.8)">
<title>dependencies</title>
<polygon fill="white" stroke="transparent" points="-4,4 -4,-169.8 456,-169.8 456,4 -4,4"/>
<text text-anchor="middle" x="226" y="-8.2" font-family="sans-serif" font-size="14.00">dependencies</text>
<g id="clust1" class="cluster">
<title>cluster_MyRequestsPageModule</title>
<polygon fill="none" stroke="black" stroke-dasharray="1,5" points="8,-32.8 8,-157.8 444,-157.8 444,-32.8 8,-32.8"/>
</g>
<g id="clust4" class="cluster">
<title>cluster_MyRequestsPageModule_imports</title>
<polygon fill="none" stroke="black" points="218,-40.8 218,-92.8 436,-92.8 436,-40.8 218,-40.8"/>
</g>
<g id="clust2" class="cluster">
<title>cluster_MyRequestsPageModule_declarations</title>
<polygon fill="none" stroke="black" points="16,-40.8 16,-92.8 210,-92.8 210,-40.8 16,-40.8"/>
</g>
<!-- MyRequestsPageComponent -->
<g id="node1" class="node">
<title>MyRequestsPageComponent</title>
<polygon fill="#ffffb3" stroke="black" points="202.04,-84.8 23.96,-84.8 23.96,-48.8 202.04,-48.8 202.04,-84.8"/>
<text text-anchor="middle" x="113" y="-62.6" font-family="Times,serif" font-size="14.00">MyRequestsPageComponent</text>
</g>
<!-- MyRequestsPageModule -->
<g id="node2" class="node">
<title>MyRequestsPageModule</title>
<polygon fill="#8dd3c7" stroke="black" points="298.25,-149.8 295.25,-153.8 274.25,-153.8 271.25,-149.8 141.75,-149.8 141.75,-113.8 298.25,-113.8 298.25,-149.8"/>
<text text-anchor="middle" x="220" y="-127.6" font-family="Times,serif" font-size="14.00">MyRequestsPageModule</text>
</g>
<!-- MyRequestsPageComponent&#45;&gt;MyRequestsPageModule -->
<g id="edge1" class="edge">
<title>MyRequestsPageComponent&#45;&gt;MyRequestsPageModule</title>
<path fill="none" stroke="black" d="M171.95,-84.91C171.95,-84.91 171.95,-103.79 171.95,-103.79"/>
<polygon fill="black" stroke="black" points="168.45,-103.79 171.95,-113.79 175.45,-103.79 168.45,-103.79"/>
</g>
<!-- MyRequestsPageRoutingModule -->
<g id="node3" class="node">
<title>MyRequestsPageRoutingModule</title>
<polygon fill="#8dd3c7" stroke="black" points="427.87,-84.8 424.87,-88.8 403.87,-88.8 400.87,-84.8 226.13,-84.8 226.13,-48.8 427.87,-48.8 427.87,-84.8"/>
<text text-anchor="middle" x="327" y="-62.6" font-family="Times,serif" font-size="14.00">MyRequestsPageRoutingModule</text>
</g>
<!-- MyRequestsPageRoutingModule&#45;&gt;MyRequestsPageModule -->
<g id="edge2" class="edge">
<title>MyRequestsPageRoutingModule&#45;&gt;MyRequestsPageModule</title>
<path fill="none" stroke="black" d="M262.22,-84.91C262.22,-84.91 262.22,-103.79 262.22,-103.79"/>
<polygon fill="black" stroke="black" points="258.72,-103.79 262.22,-113.79 265.72,-103.79 258.72,-103.79"/>
</g>
</g>
</svg>
